<!-- icon666.com - MILLIONS vector ICONS FREE --><svg viewBox="0 0 25 25" xmlns="http://www.w3.org/2000/svg"><g><path d="m19 14.5h-5c-.276 0-.5.224-.5.5s.224.5.5.5h5c.276 0 .5-.224.5-.5s-.224-.5-.5-.5z" fill="#fff" style="fill: #fff;"></path><path d="m20 4.5h-15c-1.378 0-2.5 1.121-2.5 2.5v11c0 1.379 1.122 2.5 2.5 2.5h15c1.378 0 2.5-1.121 2.5-2.5v-11c0-1.379-1.122-2.5-2.5-2.5zm-15 1h15c.827 0 1.5.673 1.5 1.5v1.5h-18v-1.5c0-.827.673-1.5 1.5-1.5zm15 14h-15c-.827 0-1.5-.673-1.5-1.5v-8.5h18v8.5c0 .827-.673 1.5-1.5 1.5z" fill="#000000" style="fill: #fff;"></path><path d="m7 16.5h-2c-.276 0-.5.224-.5.5s.224.5.5.5h2c.276 0 .5-.224.5-.5s-.224-.5-.5-.5z" fill="#fff" style="fill: #fff;"></path><path d="m11 16.5h-2c-.276 0-.5.224-.5.5s.224.5.5.5h2c.276 0 .5-.224.5-.5s-.224-.5-.5-.5z" fill="#000000" style="fill: #fff;"></path></g></svg>