<svg width="505" height="443" viewBox="0 0 505 443" fill="none" xmlns="http://www.w3.org/2000/svg">
<path d="M421.319 64.7069L421.322 64.7044L421.328 64.7001L421.333 64.6962L434.898 53.9988H417.6H88.1987H72.2277L84.2438 64.5108L84.2447 64.5116L84.2461 64.5128L84.2494 64.5158L84.2901 64.5519C84.3301 64.5875 84.3955 64.646 84.4846 64.7267C84.6628 64.8882 84.9355 65.1384 85.2894 65.4717C85.9974 66.1388 87.0275 67.1365 88.2721 68.4208C90.7677 70.9961 94.092 74.6888 97.405 79.1484C104.177 88.2636 110.244 99.7081 110.244 110.966V111.123V111.284V111.45V111.619V111.793V111.971V112.153V112.339V112.529V112.723V112.921V113.124V113.33V113.54V113.755V113.973V114.195V114.421V114.651V114.885V115.123V115.365V115.61V115.86V116.113V116.37V116.631V116.896V117.164V117.436V117.712V117.992V118.275V118.562V118.852V119.147V119.445V119.746V120.051V120.36V120.672V120.988V121.307V121.63V121.956V122.286V122.619V122.956V123.296V123.64V123.987V124.337V124.691V125.048V125.408V125.772V126.139V126.509V126.883V127.26V127.64V128.023V128.41V128.799V129.192V129.588V129.987V130.39V130.795V131.203V131.615V132.029V132.447V132.868V133.291V133.718V134.148V134.58V135.016V135.454V135.896V136.34V136.787V137.237V137.69V138.146V138.604V139.066V139.53V139.997V140.466V140.939V141.414V141.891V142.372V142.855V143.341V143.829V144.32V144.814V145.31V145.809V146.31V146.814V147.32V147.829V148.34V148.854V149.37V149.889V150.41V150.934V151.46V151.988V152.519V153.052V153.587V154.125V154.665V155.207V155.751V156.298V156.847V157.398V157.951V158.507V159.065V159.624V160.186V160.75V161.317V161.885V162.455V163.027V163.602V164.178V164.757V165.337V165.919V166.504V167.09V167.678V168.268V168.86V169.454V170.049V170.647V171.246V171.847V172.45V173.055V173.661V174.269V174.879V175.491V176.104V176.719V177.336V177.954V178.574V179.195V179.818V180.443V181.069V181.697V182.326V182.957V183.589V184.223V184.858V185.494V186.132V186.772V187.413V188.055V188.699V189.344V189.99V190.637V191.286V191.937V192.588V193.241V193.895V194.55V195.206V195.864V196.522V197.182V197.843V198.505V199.168V199.833V200.498V201.164V201.832V202.5V203.17V203.84V204.511V205.184V205.857V206.531V207.207V207.883V208.559V209.237V209.916V210.595V211.275V211.956V212.638V213.321V214.004V214.688V215.373V216.058V216.744V217.431V218.119V218.807V219.495V220.185V220.874V221.565V222.256V222.947V223.639V224.332V225.025V225.718V226.412V227.106V227.801V228.496V229.192V229.887V230.584V231.28V231.977V232.674V233.372V234.07V234.768V235.466V236.164V236.863V237.562V238.261V238.96V239.659V240.359V241.058V241.758V242.458V243.158V243.857V244.557V245.257V245.957V246.657V247.356V248.056V248.756V249.455V250.155V250.854V251.553V252.253V252.951V253.65V254.349V255.047V255.745V256.443V257.14V257.837V258.534V259.231V259.927V260.623V261.319V262.014V262.709V263.403V264.097V264.791V265.484V266.176V266.868V267.56V268.251V268.941V269.631V270.321V271.009V271.697V272.385V273.072V273.758V274.443V275.128V275.812V276.496V277.179V277.86V278.542V279.222V279.901V280.58V281.258V281.935V282.611V283.286V283.961V284.634V285.307V285.978V286.649V287.319V287.987V288.655V289.321V289.987V290.651V291.314V291.977V292.638V293.298V293.957V294.614V295.271V295.926V296.58V297.233V297.885V298.535V299.184V299.832V300.478V301.124V301.767V302.41V303.051V303.691V304.329V304.966V305.601V306.235V306.868V307.498V308.128V308.756V309.382V310.007V310.63V311.252V311.872V312.491V313.107V313.723V314.336V314.948V315.558V316.167V316.773V317.378V317.981V318.583V319.182V319.78V320.376V320.97V321.562V322.152V322.741V323.327V323.912V324.494V325.075V325.654V326.23V326.805V327.378V327.948V328.517V329.083V329.648V330.21V330.77V331.328V331.884V332.438V332.989V333.538V334.085V334.63V335.173V335.713V336.251V336.787V337.32V337.851V338.38V338.906V339.43V339.951V340.47V340.987V341.501V342.013V342.522V343.029V343.533V344.035V344.534V345.03V345.524V346.016V346.505V346.991V347.474V347.955V348.433V348.909V349.381V349.851V350.319V350.783V351.245V351.704V352.16V352.613V353.063V353.511V353.956V354.398V354.836V355.272V355.705V356.136V356.563V356.987V357.408V357.826V358.241V358.653V359.062V359.468V359.87V360.27V360.667V361.06V361.45V361.837V362.221V362.601V362.979V363.353V363.723V364.091V364.455V364.816V365.174V365.528V365.879V366.226V366.57V366.911V367.248V367.582V367.912V368.239V368.562V368.882V369.198V369.511V369.82V370.126V370.428V370.726V371.021V371.312V371.6V371.883V372.164V372.44V372.713V372.982V373.247V373.508V373.766V374.02V374.27V374.516V374.758V374.996V375.231V375.462V375.688V375.911V376.13V376.345V376.556V376.763V376.965V377.164V377.359V377.55V377.736V377.919V378.097C110.244 391.312 104.053 403.231 97.4094 412.151C94.1259 416.56 90.8347 420.096 88.3706 422.523C87.1416 423.733 86.1269 424.659 85.4332 425.272C85.0867 425.578 84.821 425.804 84.6497 425.949C84.5641 426.021 84.5021 426.072 84.4655 426.102L84.4334 426.129L84.4308 426.131L84.4298 426.132L84.4288 426.132L84.4266 426.134L71.1938 436.8H88.1987H208.567H224.445L212.538 426.303L212.538 426.302L212.537 426.301L212.535 426.3L212.531 426.296L212.486 426.256C212.442 426.216 212.371 426.152 212.275 426.065C212.083 425.89 211.79 425.62 211.412 425.262C210.654 424.546 209.555 423.48 208.228 422.113C205.568 419.372 202.027 415.459 198.498 410.775C191.265 401.174 184.845 389.324 184.845 378.097V377.94V377.779V377.614V377.445V377.273V377.096V376.916V376.732V376.544V376.353V376.158V375.959V375.756V375.55V375.34V375.126V374.908V374.687V374.463V374.234V374.003V373.767V373.528V373.286V373.039V372.79V372.537V372.28V372.02V371.756V371.489V371.219V370.945V370.668V370.387V370.103V369.815V369.525V369.23V368.933V368.632V368.328V368.021V367.71V367.396V367.079V366.759V366.435V366.108V365.779V365.445V365.109V364.77V364.427V364.082V363.733V363.381V363.026V362.669V362.308V361.944V361.577V361.207V360.834V360.458V360.079V359.697V359.313V358.925V358.534V358.141V357.745V357.346V356.944V356.539V356.132V355.721V355.308V354.892V354.474V354.052V353.628V353.201V352.772V352.34V351.905V351.467V351.027V350.584V350.139V349.691V349.241V348.788V348.332V347.874V347.413V346.95V346.484V346.016V345.546V345.073V344.597V344.119V343.639V343.156V342.671V342.184V341.694V341.202V340.707V340.211V339.712V339.21V338.707V338.201V337.693V337.183V336.67V336.156V335.639V335.12V334.599V334.076V333.55V333.023V332.493V331.962V331.428V330.892V330.354V329.815V329.273V328.729V328.183V327.636V327.086V326.534V325.981V325.426V324.868V324.309V323.748V323.185V322.621V322.054V321.486V320.916V320.344V319.77V319.195V318.618V318.039V317.459V316.876V316.293V315.707V315.12V314.531V313.941V313.349V312.755V312.16V311.563V310.965V310.365V309.764V309.161V308.557V307.951V307.344V306.735V306.125V305.514V304.901V304.287V303.671V303.054V302.436V301.816V301.195V300.573V299.949V299.325V298.699V298.071V297.443V296.813V296.182V295.55V294.917V294.282V293.647V293.01V292.372V291.733V291.093V290.452V289.81V289.167V288.523V287.878V287.231V286.584V285.936V285.287V284.637V283.986V283.334V282.681V282.028V281.373V280.718V280.062V279.405V278.747V278.088V277.429V276.769V276.108V275.446V274.784V274.121V273.457V272.793V272.128V271.462V270.795V270.128V269.461V268.793V268.124V267.454V266.784V266.114V265.443V264.772V264.1V263.427V262.754V262.081V261.407V260.733V260.058V259.383V258.708V258.032V257.356V256.679V256.003V255.326V254.648V253.971V253.293V252.615V251.936V251.258V250.579V249.9V249.221V248.541V247.862V247.182V246.502V245.823V245.143V244.463V243.783V243.102V242.422V241.742V241.062V240.382V239.702V239.022V238.341V237.661V236.982V236.302V235.622V234.943V234.263V233.584V232.905V232.226V231.547V230.869V230.19V229.512V228.834V228.157V227.48V226.803V226.126V225.45V224.774V224.098V223.423V222.748V222.074V221.4V220.726V220.053V219.38V218.708V218.036V217.365V216.694V216.024V215.354V214.685V214.017V213.349V212.681V212.015V211.348V210.683V210.018V209.354V208.69V208.028V207.366V206.704V206.044V205.384V204.725V204.067V203.409V202.753V202.097V201.442V200.788V200.134V199.482V198.831V198.18V197.53V196.882V196.234V195.587V194.942V194.297V193.653V193.01V192.369V191.728V191.089V190.45V189.813V189.177V188.542V187.908V187.275V186.643V186.013V185.384V184.756V184.129V183.503V182.879V182.256V181.634V181.014V180.395V179.777V179.161V178.546V177.932V177.32V176.709V176.1V175.492V174.885V174.28V173.676V173.074V172.474V171.874V171.277V170.681V170.086V169.493V168.902V168.312V167.724V167.138V166.553V165.97V165.389V164.809V164.231V163.654V163.08V162.507V161.936V161.367V160.799V160.233V159.67V159.108V158.547V157.989V157.433V156.878V156.325V155.775V155.226V154.679V154.134V153.591V153.05V152.511V151.974V151.44V150.907V150.376V149.847V149.321V148.796V148.274V147.754V147.236V146.72V146.206V145.695V145.186V144.679V144.174V143.671V143.171V142.673V142.177V141.684V141.193V140.704V140.217V139.733V139.252V138.772V138.296V137.821V137.349V136.88V136.413V135.948V135.486V135.026V134.569V134.115V133.663V133.214V132.767V132.323V131.881V131.442V131.006V130.572V130.141V129.713V129.287V128.864V128.444V128.026V127.612V127.2V126.791V126.384V125.981V125.58V125.182V124.787V124.395V124.006V123.62V123.236V122.856V122.478V122.103V121.732V121.363V120.998V120.635V120.275V119.919V119.565V119.215V118.867V118.523V118.182V117.844V117.509V117.177V116.849V116.524V116.201V115.882V115.567V115.254V114.945V114.639V114.336V114.037V113.741V113.448V113.159V112.873V112.59V112.311V112.035V111.763V111.494V111.228V110.966C184.845 89.9759 190.996 80.4138 195.953 76.0023C198.514 73.7232 201.029 72.5652 202.84 71.9757C203.748 71.6802 204.474 71.5295 204.928 71.455C205.107 71.4256 205.242 71.4083 205.327 71.3988H307.857H307.905C307.945 71.4005 308.043 71.406 308.192 71.4228C308.517 71.4595 309.074 71.5486 309.787 71.763C311.192 72.1856 313.252 73.1074 315.408 75.1754C319.653 79.2469 325.265 88.779 325.265 110.966V111.239V111.515V111.794V112.076V112.361V112.65V112.942V113.237V113.535V113.836V114.141V114.448V114.759V115.073V115.39V115.71V116.033V116.359V116.688V117.02V117.355V117.693V118.034V118.378V118.725V119.075V119.428V119.783V120.142V120.503V120.868V121.235V121.605V121.978V122.353V122.732V123.113V123.497V123.884V124.273V124.666V125.061V125.458V125.859V126.262V126.667V127.076V127.487V127.9V128.316V128.735V129.157V129.581V130.007V130.436V130.868V131.302V131.739V132.178V132.619V133.063V133.51V133.959V134.41V134.864V135.32V135.779V136.24V136.703V137.169V137.636V138.107V138.579V139.054V139.531V140.011V140.492V140.976V141.462V141.951V142.441V142.934V143.429V143.926V144.425V144.926V145.43V145.935V146.443V146.952V147.464V147.978V148.494V149.011V149.531V150.053V150.577V151.103V151.63V152.16V152.692V153.225V153.761V154.298V154.837V155.378V155.921V156.466V157.012V157.561V158.111V158.663V159.216V159.772V160.329V160.888V161.448V162.011V162.575V163.14V163.708V164.277V164.847V165.42V165.993V166.569V167.146V167.724V168.305V168.886V169.469V170.054V170.64V171.228V171.817V172.408V173V173.593V174.188V174.784V175.382V175.981V176.582V177.183V177.787V178.391V178.997V179.604V180.212V180.822V181.433V182.045V182.658V183.273V183.888V184.505V185.123V185.743V186.363V186.985V187.607V188.231V188.856V189.482V190.109V190.737V191.366V191.997V192.628V193.26V193.893V194.527V195.163V195.799V196.436V197.074V197.712V198.352V198.993V199.634V200.277V200.92V201.564V202.209V202.854V203.501V204.148V204.796V205.444V206.094V206.744V207.395V208.046V208.699V209.352V210.005V210.659V211.314V211.97V212.626V213.282V213.939V214.597V215.255V215.914V216.574V217.234V217.894V218.555V219.216V219.878V220.54V221.203V221.866V222.529V223.193V223.857V224.522V225.186V225.852V226.517V227.183V227.849V228.516V229.182V229.849V230.516V231.184V231.851V232.519V233.187V233.855V234.524V235.192V235.861V236.529V237.198V237.867V238.536V239.205V239.874V240.543V241.213V241.882V242.551V243.22V243.889V244.558V245.227V245.896V246.565V247.234V247.902V248.571V249.239V249.908V250.576V251.244V251.911V252.579V253.246V253.913V254.58V255.246V255.913V256.579V257.244V257.91V258.575V259.24V259.904V260.568V261.232V261.895V262.558V263.22V263.882V264.544V265.205V265.865V266.525V267.185V267.844V268.503V269.161V269.818V270.475V271.132V271.787V272.442V273.097V273.751V274.404V275.057V275.709V276.36V277.01V277.66V278.309V278.958V279.605V280.252V280.898V281.543V282.188V282.831V283.474V284.116V284.757V285.397V286.037V286.675V287.313V287.949V288.585V289.219V289.853V290.486V291.118V291.748V292.378V293.007V293.634V294.261V294.886V295.511V296.134V296.756V297.377V297.997V298.616V299.233V299.85V300.465V301.079V301.692V302.303V302.913V303.522V304.13V304.737V305.342V305.946V306.548V307.149V307.749V308.347V308.944V309.54V310.134V310.727V311.318V311.908V312.497V313.084V313.669V314.253V314.836V315.417V315.996V316.574V317.15V317.725V318.298V318.869V319.439V320.007V320.574V321.139V321.702V322.263V322.823V323.381V323.938V324.492V325.045V325.596V326.145V326.693V327.239V327.782V328.324V328.865V329.403V329.939V330.474V331.006V331.537V332.066V332.593V333.117V333.64V334.161V334.68V335.197V335.712V336.225V336.735V337.244V337.751V338.255V338.758V339.258V339.756V340.252V340.746V341.237V341.727V342.214V342.699V343.182V343.663V344.141V344.617V345.091V345.562V346.031V346.498V346.963V347.425V347.885V348.342V348.797V349.25V349.7V350.148V350.593V351.036V351.476V351.914V352.35V352.783V353.213V353.641V354.066V354.489V354.909V355.327V355.742V356.154V356.564V356.971V357.375V357.777V358.176V358.573V358.966V359.357V359.745V360.131V360.514V360.893V361.271V361.645V362.016V362.385V362.751V363.114V363.474V363.831V364.185V364.537V364.885V365.231V365.573V365.913V366.25V366.583V366.914V367.242V367.566V367.888V368.206V368.522V368.834V369.143V369.449V369.752V370.052V370.349V370.642V370.933V371.22V371.504V371.784V372.062V372.336V372.607V372.875V373.139V373.4V373.658V373.913V374.164V374.411V374.656V374.897V375.134V375.369V375.599V375.827V376.051V376.271V376.488V376.702V376.912V377.118V377.321V377.521V377.716V377.909V378.097C325.265 392.558 319.956 404.621 314.5 413.187C311.782 417.456 309.066 420.793 307.046 423.047C306.039 424.171 305.21 425.019 304.65 425.572C304.37 425.848 304.158 426.049 304.024 426.174C303.957 426.237 303.91 426.28 303.884 426.304L303.871 426.315L303.868 426.318L303.866 426.32L303.862 426.324L303.862 426.324L292.076 436.8H307.857H417.6H432.963L421.683 426.404L421.678 426.399L421.674 426.396C421.66 426.382 421.628 426.351 421.58 426.305C421.484 426.211 421.324 426.052 421.107 425.827C420.674 425.377 420.014 424.665 419.189 423.687C417.539 421.732 415.235 418.724 412.763 414.649C407.824 406.506 402.209 394.092 399.806 377.25C398.603 368.825 397.857 350.2 397.482 326.019C397.108 302.003 397.102 272.924 397.309 243.875C397.723 185.731 398.99 127.945 399.858 111.278C400.666 95.7579 406.131 84.0439 411.376 76.2077C414.002 72.2844 416.565 69.3454 418.442 67.4126C419.379 66.4474 420.141 65.7374 420.648 65.2851C420.901 65.0591 421.09 64.898 421.204 64.8019C421.262 64.7539 421.3 64.7222 421.319 64.7069Z" stroke="#0F3041" stroke-width="12"/>
<path d="M50.5804 30L18.1802 5.99987H484.915L450.514 30H50.5804Z" stroke="#0F3041" stroke-width="12"/>
</svg>
