<svg width="60" height="60" viewBox="0 0 60 60" fill="none" xmlns="http://www.w3.org/2000/svg">
<g clip-path="url(#clip0_755_178)">
<g filter="url(#filter0_i_755_178)">
<path d="M30 0C22.0453 0 14.4094 3.16266 8.78906 8.78672C3.16295 14.413 0.00155845 22.0433 0 30C0 37.9533 3.16406 45.5892 8.78906 51.2133C14.4094 56.8373 22.0453 60 30 60C37.9547 60 45.5906 56.8373 51.2109 51.2133C56.8359 45.5892 60 37.9533 60 30C60 22.0467 56.8359 14.4108 51.2109 8.78672C45.5906 3.16266 37.9547 0 30 0Z" fill="url(#paint0_linear_755_178)"/>
</g>
<path d="M47.9817 39.8426C47.655 42.3359 44.2071 46.2139 42.3189 47.8746C40.4307 49.5353 40.2307 48.8656 37.7161 48.8711C26.6935 44.885 13.9192 36.3899 11.1289 22.2839C11.1344 19.7693 10.4647 19.5694 12.1254 17.6812C13.7861 15.7929 17.6641 12.345 20.1574 12.0183C20.793 11.9479 21.4346 12.0817 21.989 12.4004C22.5434 12.7191 22.9819 13.2061 23.2408 13.7908L26.9519 22.4501C27.1444 22.8996 27.2216 23.39 27.1765 23.8769C27.1313 24.3638 26.9653 24.8316 26.6935 25.2381L23.6285 29.9277C25.0164 32.7443 27.3032 35.0181 30.1276 36.3899L34.7619 33.3065C35.1679 33.0329 35.637 32.8672 36.1248 32.8252C36.6126 32.7832 37.1031 32.8663 37.5499 33.0665L46.2092 36.7592C46.7939 37.0181 47.2809 37.4566 47.5996 38.011C47.9183 38.5654 48.0521 39.207 47.9817 39.8426ZM34.2819 16.3203C36.5302 16.9345 38.5795 18.1244 40.2275 19.7725C41.8756 21.4205 43.0655 23.4698 43.6797 25.7181C43.7612 26.0338 43.9448 26.3136 44.202 26.514C44.4592 26.7144 44.7754 26.824 45.1014 26.8259C45.2326 26.8257 45.3631 26.807 45.4891 26.7705C45.6769 26.7214 45.8529 26.6353 46.007 26.5172C46.1611 26.3992 46.29 26.2516 46.3863 26.0831C46.4826 25.9146 46.5443 25.7285 46.5678 25.5359C46.5913 25.3432 46.5761 25.1478 46.5231 24.9611C45.7846 22.2077 44.3346 19.697 42.3188 17.6812C40.303 15.6654 37.7923 14.2154 35.0389 13.4769C34.8462 13.4067 34.641 13.3774 34.4364 13.3909C34.2318 13.4043 34.0322 13.4602 33.8504 13.555C33.6686 13.6498 33.5085 13.7815 33.3803 13.9415C33.2521 14.1016 33.1587 14.2866 33.1059 14.4848C33.0532 14.6829 33.0423 14.8899 33.0739 15.0925C33.1055 15.2951 33.1789 15.4889 33.2896 15.6616C33.4002 15.8342 33.5455 15.982 33.7164 16.0954C33.8872 16.2088 34.0798 16.2854 34.2819 16.3203ZM32.7494 22.0255C33.9992 22.3676 35.1383 23.0293 36.0545 23.9455C36.9707 24.8617 37.6324 26.0008 37.9745 27.2506C38.0531 27.5678 38.236 27.8494 38.4938 28.0503C38.7516 28.2512 39.0694 28.3597 39.3962 28.3584C39.5215 28.3596 39.6461 28.3409 39.7655 28.303C39.9549 28.2559 40.133 28.1712 40.2891 28.0541C40.4452 27.9369 40.5762 27.7896 40.6743 27.6208C40.7725 27.4521 40.8357 27.2654 40.8604 27.0718C40.8851 26.8781 40.8706 26.6815 40.8179 26.4936C40.3516 24.7387 39.4298 23.1381 38.1458 21.8542C36.8619 20.5702 35.2613 19.6484 33.5064 19.1821C33.3138 19.1119 33.1086 19.0826 32.904 19.0961C32.6993 19.1095 32.4998 19.1654 32.3179 19.2602C32.1361 19.355 31.976 19.4866 31.8478 19.6467C31.7197 19.8068 31.6262 19.9918 31.5735 20.1899C31.5207 20.3881 31.5098 20.5951 31.5414 20.7977C31.573 21.0003 31.6465 21.1941 31.7571 21.3667C31.8677 21.5394 32.0131 21.6871 32.1839 21.8005C32.3548 21.914 32.5474 21.9906 32.7494 22.0255Z" fill="white"/>
</g>
<defs>
<filter id="filter0_i_755_178" x="0" y="0" width="60" height="64" filterUnits="userSpaceOnUse" color-interpolation-filters="sRGB">
<feFlood flood-opacity="0" result="BackgroundImageFix"/>
<feBlend mode="normal" in="SourceGraphic" in2="BackgroundImageFix" result="shape"/>
<feColorMatrix in="SourceAlpha" type="matrix" values="0 0 0 0 0 0 0 0 0 0 0 0 0 0 0 0 0 0 127 0" result="hardAlpha"/>
<feOffset dy="4"/>
<feGaussianBlur stdDeviation="2"/>
<feComposite in2="hardAlpha" operator="arithmetic" k2="-1" k3="1"/>
<feColorMatrix type="matrix" values="0 0 0 0 1 0 0 0 0 1 0 0 0 0 1 0 0 0 0.25 0"/>
<feBlend mode="normal" in2="shape" result="effect1_innerShadow_755_178"/>
</filter>
<linearGradient id="paint0_linear_755_178" x1="3.77496e-07" y1="3.5" x2="60" y2="60" gradientUnits="userSpaceOnUse">
<stop stop-color="#0F3041"/>
<stop offset="1" stop-color="#074E73"/>
</linearGradient>
<clipPath id="clip0_755_178">
<rect width="60" height="60" fill="white"/>
</clipPath>
</defs>
</svg>
