<svg width="62" height="46" viewBox="0 0 62 46" fill="none" xmlns="http://www.w3.org/2000/svg">
<g filter="url(#filter0_di_1071_8)">
<path d="M43.1548 23.283C42.5583 23.2833 41.9862 23.4939 41.5641 23.8688C41.142 24.2436 40.9044 24.7519 40.9033 25.2823V27.035H45.4063V25.2703V25.2637C45.3995 24.7366 45.1594 24.2331 44.738 23.8623C44.3165 23.4916 43.7477 23.2834 43.1548 23.283Z" fill="url(#paint0_linear_1071_8)"/>
<path d="M54.3006 6.45818H29.9699C29.6938 6.45818 29.4298 6.34408 29.2412 6.14248C28.0631 4.88342 26.9166 3.63016 26.5263 3.15002C26.4907 3.10626 26.4611 3.05926 26.4321 3.01089C26.2565 2.71797 25.9977 2.47037 25.6808 2.29311C25.3376 2.10118 24.9404 1.99956 24.5349 2H14.7302C14.0805 2 13.4652 2.26094 13.0583 2.71084L9.96843 6.12879C9.77883 6.33851 9.50933 6.45818 9.22662 6.45818H5.70005C4.71917 6.45944 3.77888 6.80644 3.0853 7.42309C2.39171 8.03975 2.00143 8.87574 2 9.74782V38.7116C2.00143 39.5835 2.39176 40.4194 3.08538 41.0359C3.779 41.6523 4.7193 41.999 5.70005 42H54.3C55.2807 41.999 56.221 41.6523 56.9146 41.0359C57.6082 40.4194 57.9986 39.5835 58 38.7116V9.74782C57.9989 8.87575 57.6089 8.03966 56.9153 7.42295C56.2218 6.80625 55.2815 6.45929 54.3006 6.45818ZM51.2827 35.4897C51.2828 35.5604 51.2672 35.6305 51.2367 35.6958C51.2063 35.7612 51.1617 35.8206 51.1054 35.8706C51.0491 35.9206 50.9823 35.9602 50.9087 35.9871C50.8352 36.0141 50.7564 36.0279 50.6768 36.0278H35.8503C35.7708 36.0279 35.6921 36.014 35.6186 35.987C35.5451 35.96 35.4784 35.9203 35.4222 35.8703C35.366 35.8204 35.3214 35.761 35.291 35.6957C35.2606 35.6304 35.245 35.5604 35.2451 35.4897V27.5721C35.2451 27.2746 35.5157 27.034 35.8503 27.034H36.6808C37.2331 27.034 37.6808 26.5863 37.6808 26.034V25.2818C37.6808 22.5987 40.1367 20.4146 43.156 20.4146C46.1759 20.4146 48.6318 22.5987 48.6318 25.2818L48.6311 25.304V26.034C48.6311 26.5863 49.0788 27.034 49.6311 27.034H50.6761C51.0108 27.034 51.282 27.2746 51.282 27.5721L51.2827 35.4897Z" fill="url(#paint1_linear_1071_8)"/>
</g>
<defs>
<filter id="filter0_di_1071_8" x="0" y="0" width="62" height="46" filterUnits="userSpaceOnUse" color-interpolation-filters="sRGB">
<feFlood flood-opacity="0" result="BackgroundImageFix"/>
<feColorMatrix in="SourceAlpha" type="matrix" values="0 0 0 0 0 0 0 0 0 0 0 0 0 0 0 0 0 0 127 0" result="hardAlpha"/>
<feOffset dx="1" dy="1"/>
<feGaussianBlur stdDeviation="1.5"/>
<feComposite in2="hardAlpha" operator="out"/>
<feColorMatrix type="matrix" values="0 0 0 0 0 0 0 0 0 0 0 0 0 0 0 0 0 0 0.3 0"/>
<feBlend mode="normal" in2="BackgroundImageFix" result="effect1_dropShadow_1071_8"/>
<feBlend mode="normal" in="SourceGraphic" in2="effect1_dropShadow_1071_8" result="shape"/>
<feColorMatrix in="SourceAlpha" type="matrix" values="0 0 0 0 0 0 0 0 0 0 0 0 0 0 0 0 0 0 127 0" result="hardAlpha"/>
<feOffset dx="2" dy="2"/>
<feGaussianBlur stdDeviation="1.5"/>
<feComposite in2="hardAlpha" operator="arithmetic" k2="-1" k3="1"/>
<feColorMatrix type="matrix" values="0 0 0 0 0.979167 0 0 0 0 0.979167 0 0 0 0 0.979167 0 0 0 0.28 0"/>
<feBlend mode="normal" in2="shape" result="effect2_innerShadow_1071_8"/>
</filter>
<linearGradient id="paint0_linear_1071_8" x1="40.9033" y1="24.6896" x2="46.0421" y2="28.5101" gradientUnits="userSpaceOnUse">
<stop offset="0.078125" stop-color="#0A2939"/>
<stop offset="0.90308" stop-color="#074E73"/>
</linearGradient>
<linearGradient id="paint1_linear_1071_8" x1="2" y1="16.9954" x2="58.6333" y2="66.1129" gradientUnits="userSpaceOnUse">
<stop offset="0.078125" stop-color="#0A2939"/>
<stop offset="0.90308" stop-color="#074E73"/>
</linearGradient>
</defs>
</svg>
