<?xml version="1.0" encoding="UTF-8" standalone="no"?>
<svg
   xmlns:dc="http://purl.org/dc/elements/1.1/"
   xmlns:cc="http://creativecommons.org/ns#"
   xmlns:rdf="http://www.w3.org/1999/02/22-rdf-syntax-ns#"
   xmlns:svg="http://www.w3.org/2000/svg"
   xmlns="http://www.w3.org/2000/svg"
   xmlns:sodipodi="http://sodipodi.sourceforge.net/DTD/sodipodi-0.dtd"
   xmlns:inkscape="http://www.inkscape.org/namespaces/inkscape"
   version="1.1"
   id="svg2"
   xml:space="preserve"
   width="866.66669"
   height="666.66669"
   viewBox="0 0 866.66669 666.66669"
   sodipodi:docname="4470587.eps"><metadata
     id="metadata8"><rdf:RDF><cc:Work
         rdf:about=""><dc:format>image/svg+xml</dc:format><dc:type
           rdf:resource="http://purl.org/dc/dcmitype/StillImage" /></cc:Work></rdf:RDF></metadata><defs
     id="defs6"><clipPath
       clipPathUnits="userSpaceOnUse"
       id="clipPath136"><path
         d="m 1402.23,2549.57 c 1.03,5.78 2.19,11.55 3.44,17.26 -1.25,-5.78 -2.41,-11.48 -3.44,-17.26 m 17.15,68.55 c 0.15,0.48 0.31,0.96 0.47,1.43 -0.15,-0.48 -0.31,-0.95 -0.47,-1.43"
         id="path134" /></clipPath></defs><sodipodi:namedview
     pagecolor="#ffffff"
     bordercolor="#666666"
     borderopacity="1"
     objecttolerance="10"
     gridtolerance="10"
     guidetolerance="10"
     inkscape:pageopacity="0"
     inkscape:pageshadow="2"
     inkscape:window-width="640"
     inkscape:window-height="480"
     id="namedview4" /><g
     id="g10"
     inkscape:groupmode="layer"
     inkscape:label="ink_ext_XXXXXX"
     transform="matrix(1.3333333,0,0,-1.3333333,0,666.66667)"><g
       id="g12"
       transform="scale(0.1)"><path
         d="M 0,0 H 6500 V 5000 H 0 Z"
         style="fill:#ffffff;fill-opacity:1;fill-rule:nonzero;stroke:none"
         id="path14" /><path
         d="m 3762.1,1513.93 c 82.9,168.39 216.66,307.75 364.55,420.96 119.3,91.32 254.1,180.1 395.35,232.55 125.23,46.51 153.02,-62.88 254.13,-100.31 64.62,-23.92 136.33,12.66 187.13,59.2 49.02,44.92 89.56,101.23 148.05,134.81 43.15,24.79 107.56,37.13 152.82,10.58 56.23,-33 46.68,-114.17 122.6,-123.43 35.4,-4.32 70.64,8.39 102.65,24.09 75.31,36.93 149.93,71.08 230.71,94.79 73.01,21.42 167.59,28.54 209.74,-34.81 40.45,-60.78 2.03,-143.22 -46.65,-197.61 -117.17,-130.96 -290.43,-201.64 -464.62,-224.83 -47.51,-6.33 -96.4,-9.7 -140.26,-29.02 -43.86,-19.33 -82.63,-59.17 -84.41,-107.07 -0.97,-25.78 8.71,-50.95 9.03,-76.75 0.91,-71.6 -69.78,-125.11 -139.58,-141.07 -179.68,-41.12 -296.67,116.69 -465.64,140.9 -191.56,27.44 -486.44,-2.46 -619.46,-163.73 l -216.14,80.75"
         style="fill:#bae9f7;fill-opacity:1;fill-rule:nonzero;stroke:none"
         id="path16" /><path
         d="m 4296.09,1743.75 v 20.16 c 15.17,8.69 30.54,17.08 46.09,25.15 1.95,-2.21 3.88,-4.4 5.84,-6.6 -1.94,2.18 -3.5,4.59 -4.72,7.18 130.63,67.65 274.03,113.12 421.11,132.19 161.18,20.85 323.6,10.88 483.45,25.39 159.79,14.42 324.56,57.66 438.02,162.8 1.68,1.56 3.81,2.32 5.93,2.32 2.34,0 4.68,-0.94 6.4,-2.79 3.27,-3.54 3.05,-9.06 -0.48,-12.33 -118.12,-109.21 -286.63,-152.69 -448.3,-167.37 -161.62,-14.6 -323.81,-4.68 -482.78,-25.32 -166.04,-21.51 -327.45,-77.23 -470.56,-160.78"
         style="fill:#dff5fb;fill-opacity:1;fill-rule:nonzero;stroke:none"
         id="path18" /><path
         d="m 4916.82,2305.17 c 95.68,55.32 198.46,132.29 171.31,249.66 -8.91,38.5 -37.3,73.57 -32.42,112.8 3.22,25.86 20.42,47.4 32.99,70.23 29.9,54.29 34.08,122.06 11.06,179.6 -24.73,61.83 -77.03,108.32 -109.68,166.35 -26.68,47.4 -39.71,102.38 -37.13,156.71 -101.08,-10.63 -188.39,-74.37 -286.2,-101.95 -74.83,-21.09 -154.72,-20.67 -228.58,-44.92 -134.69,-44.24 -236.07,-175.63 -244.67,-317.14 -64.84,5.11 -131.4,-24.19 -171.41,-75.45 -42.55,-54.51 -62.56,-128.25 -51.97,-196.6 44.05,-284.6 190.51,-510.9 377.9,-722 -40.76,45.93 84.37,188.59 108.58,216.4 105.21,120.82 249.53,190.41 387.46,266.14 21.98,12.08 47.11,25.34 72.76,40.17"
         style="fill:#bae9f7;fill-opacity:1;fill-rule:nonzero;stroke:none"
         id="path20" /><path
         d="m 4371.34,2262.1 h -17.44 c 0.26,14.42 1.1,28.83 2.44,43.22 0.06,-0.39 0.12,-0.77 0.18,-1.15 0.67,-4.3 4.38,-7.37 8.6,-7.37 0.45,0 0.91,0.03 1.36,0.1 3.8,0.6 6.64,3.56 7.26,7.15 -1.32,-14 -2.14,-27.98 -2.4,-41.95 m 2.52,43.23 c 0.01,0.51 -0.03,1.02 -0.11,1.54 -2.03,12.97 -4.81,32.98 -9.36,57.01 10.29,57.52 27,114.27 45.15,169.18 12.65,38.25 26.13,76.37 40.92,113.98 0.38,-1.05 0.77,-2.09 1.15,-3.14 1.3,-3.52 4.64,-5.71 8.18,-5.71 1.01,0 2.03,0.18 3.02,0.55 2.32,0.85 4.06,2.59 4.98,4.69 -15.07,-38.14 -28.8,-76.88 -41.69,-115.85 -5.73,-17.31 -11.29,-34.75 -16.54,-52.32 -7.6,-6.07 -14.92,-12.16 -21.92,-18.22 -3.64,-3.15 -4.04,-8.66 -0.88,-12.3 1.72,-1.99 4.15,-3.01 6.59,-3.01 2.03,0 4.06,0.7 5.71,2.13 0.65,0.56 1.32,1.14 1.98,1.71 -12.72,-46.38 -22.69,-93.35 -27.18,-140.24 m 94.16,338.68 c 0.65,1.85 0.69,3.94 -0.04,5.93 -2.62,7.11 -5.17,14.35 -7.62,21.71 27.65,67.2 59.87,132.52 99.4,193.76 17.46,27.03 36.43,53.28 56.88,78.31 0.23,-1.39 0.47,-2.76 0.73,-4.1 0.8,-4.17 4.46,-7.08 8.56,-7.08 0.54,0 1.1,0.05 1.65,0.16 1.89,0.36 3.51,1.3 4.73,2.61 -20.85,-25.28 -40.15,-51.88 -57.89,-79.37 -29.12,-45.09 -54.27,-92.57 -76.56,-141.54 -9.15,-6.33 -17.99,-12.8 -26.48,-19.4 -3.8,-2.96 -4.48,-8.44 -1.52,-12.24 1.72,-2.21 4.29,-3.36 6.88,-3.36 1.88,0 3.76,0.6 5.36,1.84 0.59,0.46 1.17,0.91 1.76,1.37 -5.45,-12.79 -10.73,-25.66 -15.84,-38.6 m 164.97,292.12 c 1.37,1.89 1.99,4.31 1.51,6.78 -1.13,5.89 -1.95,12.34 -2.34,19.22 54.09,62.27 117.89,115.97 191.18,154.19 1.29,0.67 2.67,0.99 4.03,0.99 3.14,0 6.18,-1.71 7.74,-4.69 2.22,-4.28 0.57,-9.54 -3.71,-11.77 -48.66,-25.36 -93.17,-57.89 -133.39,-95.45 -16.83,-5.94 -32.48,-13.45 -46.71,-22.46 -4.07,-2.58 -5.28,-7.97 -2.7,-12.04 1.66,-2.62 4.49,-4.05 7.37,-4.05 1.6,0 3.22,0.44 4.66,1.35 0.31,0.2 0.63,0.4 0.94,0.59 -9.83,-10.6 -19.35,-21.5 -28.58,-32.66"
         style="fill:#dff5fb;fill-opacity:1;fill-rule:nonzero;stroke:none"
         id="path22" /><path
         d="m 4459.79,2638.19 c -3.54,0 -6.88,2.19 -8.18,5.71 -0.38,1.05 -0.77,2.09 -1.15,3.14 -35.95,98.99 -56.35,220.96 -56.37,327.76 0,6.36 0.07,12.67 0.22,18.92 v 0 c 0.11,4.74 3.99,8.51 8.71,8.51 0.07,0 0.14,0 0.21,0 4.82,-0.11 8.63,-4.11 8.52,-8.92 -0.15,-6.11 -0.22,-12.28 -0.22,-18.51 -0.02,-97.95 17.7,-209.94 48.83,-303.15 2.45,-7.36 5,-14.6 7.62,-21.71 0.73,-1.99 0.69,-4.08 0.04,-5.93 -0.07,-0.2 -0.15,-0.39 -0.23,-0.58 -0.92,-2.1 -2.66,-3.84 -4.98,-4.69 -0.99,-0.37 -2.01,-0.55 -3.02,-0.55"
         style="fill:#dff5fb;fill-opacity:1;fill-rule:nonzero;stroke:none"
         id="path24" /><path
         d="m 4476.74,2679.4 c -2.59,0 -5.16,1.15 -6.88,3.36 -2.96,3.8 -2.28,9.28 1.52,12.24 8.49,6.6 17.33,13.07 26.48,19.4 120.12,83.04 293.53,141.06 434.59,146 0.1,0.01 0.2,0.01 0.3,0.01 4.68,0 8.55,-3.72 8.71,-8.43 0.16,-4.81 -3.61,-8.85 -8.42,-9.01 -146.52,-4.87 -332.99,-70.49 -449.18,-160.36 -0.59,-0.46 -1.17,-0.91 -1.76,-1.37 -1.6,-1.24 -3.48,-1.84 -5.36,-1.84"
         style="fill:#dff5fb;fill-opacity:1;fill-rule:nonzero;stroke:none"
         id="path26" /><path
         d="m 4365.12,2296.8 c -4.22,0 -7.93,3.07 -8.6,7.37 -0.06,0.38 -0.12,0.76 -0.18,1.15 -3.72,23.98 -9.73,68.64 -23.69,117.91 -14.15,50.04 -36.56,104.57 -72.35,146.18 -23.88,27.77 -53.53,49.84 -90.99,61.76 -4.59,1.45 -7.13,6.36 -5.67,10.95 1.18,3.71 4.61,6.08 8.31,6.08 0.87,0 1.76,-0.13 2.64,-0.41 40.94,-12.99 73.42,-37.29 98.94,-67.01 25.53,-29.74 44.26,-64.9 58.25,-100.24 16.31,-41.26 26.22,-82.92 32.61,-116.66 4.55,-24.03 7.33,-44.04 9.36,-57.01 0.08,-0.52 0.12,-1.03 0.11,-1.54 -0.01,-0.43 -0.05,-0.86 -0.12,-1.28 -0.62,-3.59 -3.46,-6.55 -7.26,-7.15 -0.45,-0.07 -0.91,-0.1 -1.36,-0.1"
         style="fill:#dff5fb;fill-opacity:1;fill-rule:nonzero;stroke:none"
         id="path28" /><path
         d="m 4393.35,2441.73 c -2.44,0 -4.87,1.02 -6.59,3.01 -3.16,3.64 -2.76,9.15 0.88,12.3 7,6.06 14.32,12.15 21.92,18.22 46.63,37.26 103.82,74.1 163.49,103.09 69.42,33.68 142.07,56.83 205.88,56.89 12.03,0 23.75,-0.83 35.07,-2.61 4.76,-0.74 8.02,-5.2 7.27,-9.96 -0.67,-4.3 -4.38,-7.37 -8.6,-7.37 -0.45,0 -0.9,0.03 -1.36,0.1 -10.33,1.62 -21.15,2.39 -32.38,2.39 -0.07,0 -0.14,0 -0.21,0 -59.52,0 -130.26,-22.16 -198.05,-55.13 -66.98,-32.52 -131.18,-75.47 -179.63,-117.09 -0.66,-0.57 -1.33,-1.15 -1.98,-1.71 -1.65,-1.43 -3.68,-2.13 -5.71,-2.13"
         style="fill:#dff5fb;fill-opacity:1;fill-rule:nonzero;stroke:none"
         id="path30" /><path
         d="m 4420.29,2218.37 v 23.92 c 23.6,21.52 50.55,42.75 79.4,62.7 56.17,38.81 119.47,72.69 179.23,93.73 39.86,14.01 78.13,22.36 111.99,22.38 9.25,0 18.18,-0.63 26.71,-1.97 4.76,-0.74 8.02,-5.2 7.28,-9.96 -0.68,-4.3 -4.39,-7.38 -8.61,-7.38 -0.45,0 -0.9,0.04 -1.36,0.11 -7.53,1.18 -15.56,1.75 -24.02,1.75 -0.04,0 -0.07,0 -0.11,0 -30.95,0 -67.56,-7.81 -106.09,-21.38 -38.58,-13.58 -79.1,-32.87 -118.12,-55.49 -54.85,-31.77 -106.76,-70.26 -146.3,-108.41"
         style="fill:#dff5fb;fill-opacity:1;fill-rule:nonzero;stroke:none"
         id="path32" /><path
         d="m 4625.93,2932.54 c -4.1,0 -7.76,2.91 -8.56,7.08 -0.26,1.34 -0.5,2.71 -0.73,4.1 -1.41,8.64 -2.2,18.07 -2.21,28.06 0.01,32.63 8.5,71.42 32.33,107.07 1.69,2.51 4.45,3.87 7.26,3.87 1.67,0 3.35,-0.48 4.84,-1.47 4.01,-2.68 5.08,-8.1 2.4,-12.1 -21.62,-32.3 -29.39,-67.71 -29.38,-97.37 0,-3.3 0.09,-6.52 0.28,-9.65 0.39,-6.88 1.21,-13.33 2.34,-19.22 0.48,-2.47 -0.14,-4.89 -1.51,-6.78 -0.21,-0.29 -0.44,-0.56 -0.68,-0.82 -1.22,-1.31 -2.84,-2.25 -4.73,-2.61 -0.55,-0.11 -1.11,-0.16 -1.65,-0.16"
         style="fill:#dff5fb;fill-opacity:1;fill-rule:nonzero;stroke:none"
         id="path34" /><path
         d="m 4655.97,2966.85 c -2.88,0 -5.71,1.43 -7.37,4.05 -2.58,4.07 -1.37,9.46 2.7,12.04 14.23,9.01 29.88,16.52 46.71,22.46 30.14,10.64 64.06,16.21 100.3,16.22 18.86,0 38.35,-1.52 58.28,-4.62 4.76,-0.74 8.02,-5.2 7.28,-9.96 -0.67,-4.3 -4.38,-7.38 -8.61,-7.38 -0.44,0 -0.89,0.03 -1.35,0.11 -19.07,2.97 -37.68,4.4 -55.6,4.4 -0.02,0 -0.03,0 -0.04,0 -53.22,0 -100.46,-12.69 -136.7,-35.38 -0.31,-0.19 -0.63,-0.39 -0.94,-0.59 -1.44,-0.91 -3.06,-1.35 -4.66,-1.35"
         style="fill:#dff5fb;fill-opacity:1;fill-rule:nonzero;stroke:none"
         id="path36" /><path
         d="m 2973.16,1308.76 c -129.48,354.69 -461.47,685.65 -788.42,874.56 -79.73,46.06 -196.09,80.9 -232.6,-29.08 -23.51,-70.73 -105.88,-52.32 -152.94,-19.63 -58.36,40.54 -92.37,106.28 -141.9,155.77 -39.84,39.81 -90.48,70.3 -146.08,79.26 -55.61,8.94 -116.1,-5.56 -156.88,-44.41 -30.92,-29.45 -49.48,-70.94 -83.72,-96.48 -57.42,-42.84 -140.92,-26.9 -202,10.56 -61.07,37.46 -109.167,92.89 -168.37,133.24 -59.199,40.35 -138.957,64.25 -201.945,30.12 -83.477,-45.25 -91.114,-165.81 -55.668,-253.9 21.879,-54.38 56.465,-133.25 98.011,-175.86 59.016,-60.52 144.856,-100.73 226.95,-116.84 60.492,-11.88 123.042,-11.54 183.022,-25.8 21.65,-5.14 46.55,-14.3 50.88,-39.26 6.26,-36.07 -38.34,-58.16 -64.37,-71.27 -45.08,-22.73 -89.68,-72.21 -68.66,-118.09 13.19,-28.78 46.94,-41.61 78.14,-46.92 93.71,-15.93 186.67,11.12 275.53,38.5 54.06,16.68 101.5,50.46 156.96,64.82 28.83,7.45 102.66,10.7 94.68,-38.01 -2.49,-15.24 -13.35,-27.75 -25.08,-37.78 -11.72,-10.05 -24.87,-18.66 -34.68,-30.58 -42.6,-51.83 -0.36,-112.84 55.62,-126.31 42.99,-10.33 87.87,0.68 130.93,10.74 281.57,65.77 576.7,91.23 860.1,33.8 60.37,-12.23 126.36,-32.86 156.6,-86.52 l 155.89,-74.63"
         style="fill:#bae9f7;fill-opacity:1;fill-rule:nonzero;stroke:none"
         id="path38" /><path
         d="m 1832.88,1884.61 c -155.59,12.77 -313.34,5.49 -470.6,19.03 -180.15,15.6 -367.948,63.28 -499.839,184.22 -3.546,3.26 -3.785,8.78 -0.527,12.33 1.719,1.87 4.07,2.82 6.43,2.82 2.105,0 4.219,-0.76 5.894,-2.3 127.212,-116.89 311.272,-164.35 489.542,-179.69 137.95,-11.94 277.49,-7.55 416.75,-15.35 3.47,-1.03 6.95,-2.03 10.46,-3 14.92,-4.12 29.01,-10.24 41.89,-18.06"
         style="fill:#dff5fb;fill-opacity:1;fill-rule:nonzero;stroke:none"
         id="path40" /><path
         d="m 2715.33,1617.3 c -18.46,115.66 -69.45,230.46 -89.46,348.08 -32.06,188.51 -37.04,378.04 -2.22,565.31 29.69,159.64 79.06,326.76 24.99,488.27 -14.36,42.9 -40.83,89.25 -96.47,88.8 -22.31,-0.18 -43.46,-9.48 -59.53,-23.73 -40.57,-35.95 -48.05,-87.65 -54.65,-137.03 l -22.06,-165.08 c -7.18,-53.68 -88.97,-60.12 -105.36,-7.85 l -0.4,1.32 c -13.38,43.9 -10.98,90.26 -7.43,135.52 7.71,98.47 20.27,197.7 5.2,295.8 -18.24,118.71 -83.33,239.07 -210.18,283.65 -44.97,15.81 -94.69,17.8 -140.14,4.81 -127.03,-36.3 -152.73,-156 -127.25,-256.3 17.94,-70.57 57.75,-134.54 94.15,-198.84 88.9,-157.05 40.85,-306.32 63.15,-481.94 47.23,-372.04 411.25,-731.6 727.66,-940.79"
         style="fill:#bae9f7;fill-opacity:1;fill-rule:nonzero;stroke:none"
         id="path42" /><path
         d="m 2259.18,2619.55 h -17.91 c -28.07,121.79 -52.81,240.03 -83.7,346.55 -35.47,122.42 -79.09,229.19 -144.36,308.12 -3.07,3.71 -2.55,9.21 1.17,12.27 1.62,1.35 3.59,2 5.55,2 2.51,0 5,-1.08 6.72,-3.16 67.74,-82.01 111.86,-190.95 147.67,-314.37 31.47,-108.58 56.47,-228.47 84.86,-351.41"
         style="fill:#dff5fb;fill-opacity:1;fill-rule:nonzero;stroke:none"
         id="path44" /><path
         d="m 2480.66,2562.08 c -0.16,0.77 -0.32,1.55 -0.48,2.31 0.06,-0.28 0.12,-0.57 0.19,-0.85 l 0.29,-1.46 m -0.6,2.9 c -0.17,0.77 -0.33,1.54 -0.49,2.29 0.18,-0.77 0.33,-1.53 0.49,-2.29 m 14.6,19.28 c -0.4,1.65 -0.82,3.3 -1.27,4.94 -0.95,4.1 -1.97,8.05 -3.15,12.07 -1.11,4.08 -2.26,8.14 -3.47,12.18 1.87,5.22 3.74,10.49 5.59,15.79 2.35,6.74 4.67,13.54 6.94,20.4 h 18.35 c -2.87,-8.82 -5.83,-17.54 -8.82,-26.14 -4.67,-13.39 -9.45,-26.5 -14.17,-39.24"
         style="fill:#dff5fb;fill-opacity:1;fill-rule:nonzero;stroke:none"
         id="path46" /><path
         d="m 1775.12,1312.08 c -11.49,65.06 -193.15,470.6 -403.43,361.99 -124.9,-64.5 -102.44,-302.04 92.66,-481.5 -38.29,37.04 -82.51,79.03 -134.77,89.41 -28.22,5.6 -62.77,-7.39 -83.91,-26.91 -18.81,-17.37 -24.35,-44.81 -25.22,-70.4 -3.16,-93.08 45.37,-186.248 123.44,-237.029 -43.15,24.109 -80.55,54.299 -129.79,58.529 -16,1.37 -43.13,-7.791 -50.54,-22.041 -8.06,-15.52 -7.49,-73.66 87.5,-117.078 -387.201,73.441 -409.79,-91.61 -270.607,-91.61 139.177,0 1141.497,0 1141.497,0 l -346.83,536.639"
         style="fill:#ecf9fe;fill-opacity:1;fill-rule:nonzero;stroke:none"
         id="path48" /><path
         d="m 2500.74,1634.11 c -18.39,104.15 -210.22,758.88 -546.86,585.02 -199.96,-103.28 -164,-483.56 148.34,-770.86 -61.31,59.3 -132.1,126.53 -215.75,143.14 -45.2,8.96 -100.5,-11.84 -134.35,-43.09 -30.12,-27.8 -38.98,-71.73 -40.37,-112.69 -5.06,-149.02 72.63,-298.19 197.61,-379.48 -69.08,38.6 -128.94,86.94 -207.79,93.7 -25.61,2.2 -69.04,-12.47 -80.89,-35.28 -12.91,-24.84 -12,-117.929 140.07,-187.441 -619.88,117.571 -656.04,-146.668 -433.22,-146.668 222.81,0 1472.56,0 1472.56,0 l -299.35,853.649"
         style="fill:#ddf4fc;fill-opacity:1;fill-rule:nonzero;stroke:none"
         id="path50" /><path
         d="m 5035.63,1312.08 c 11.5,65.06 193.16,470.6 403.43,361.99 124.9,-64.5 102.44,-302.04 -92.65,-481.5 38.29,37.04 82.51,79.03 134.76,89.41 28.23,5.6 62.78,-7.39 83.92,-26.91 18.82,-17.37 24.34,-44.81 25.21,-70.4 3.17,-93.08 -45.36,-186.248 -123.42,-237.029 43.14,24.109 80.53,54.299 129.78,58.529 16.01,1.37 43.13,-7.791 50.54,-22.041 8.05,-15.52 7.49,-73.66 -87.5,-117.078 387.2,73.441 409.78,-91.61 270.6,-91.61 -139.18,0 -1141.49,0 -1141.49,0"
         style="fill:#ecf9fe;fill-opacity:1;fill-rule:nonzero;stroke:none"
         id="path52" /><path
         d="m 4310.02,1634.11 c 18.39,104.15 210.22,758.88 546.86,585.02 199.96,-103.28 164,-483.56 -148.34,-770.86 61.3,59.3 132.09,126.52 215.76,143.14 45.18,8.96 100.49,-11.84 134.34,-43.09 30.12,-27.8 38.98,-71.73 40.37,-112.7 5.05,-149.01 -72.63,-298.18 -197.61,-379.47 69.08,38.6 128.94,86.94 207.79,93.7 25.61,2.2 69.03,-12.47 80.89,-35.28 12.9,-24.84 12,-117.929 -140.07,-187.441 619.88,117.571 656.03,-146.668 433.22,-146.668 -222.81,0 -1472.57,0 -1472.57,0"
         style="fill:#ddf4fc;fill-opacity:1;fill-rule:nonzero;stroke:none"
         id="path54" /><path
         d="m 2825.23,3788.49 91.33,-48.71 -45.66,118.74"
         style="fill:#d4f1fc;fill-opacity:1;fill-rule:nonzero;stroke:none"
         id="path56" /><path
         d="m 2541.85,3940.3 c 0,-106.61 86.43,-193.03 193.03,-193.03 106.61,0 193.04,86.42 193.04,193.03 0,106.61 -86.43,193.04 -193.04,193.04 -106.6,0 -193.03,-86.43 -193.03,-193.04"
         style="fill:#d4f1fc;fill-opacity:1;fill-rule:nonzero;stroke:none"
         id="path58" /><path
         d="m 2722.58,4060.35 c -44.99,-3.99 -78.22,-43.7 -74.23,-88.69 1.23,-13.9 6.19,-26.45 13.34,-37.36 l 46.91,-76.65 31.73,2.81 31.72,2.82 32.68,83.72 c 5.12,11.99 7.78,25.22 6.54,39.12 -3.98,44.99 -43.7,78.23 -88.69,74.23 z m 0.96,-10.82 c 38.96,3.45 73.45,-25.42 76.91,-64.37 1,-11.26 -0.92,-22.66 -5.72,-33.9 l -6.72,-16.66 -23.6,-61.09 -25.04,-2.22 -25.05,-2.23 -33.58,56.02 -9.96,15.19 c -6.7,10.2 -10.6,21.09 -11.6,32.35 -3.46,38.95 25.42,73.45 64.36,76.91"
         style="fill:#78c7f0;fill-opacity:1;fill-rule:nonzero;stroke:none"
         id="path60" /><path
         d="m 2745.7,3799.88 v 0 c -17.58,-1.56 -33.1,11.42 -34.66,29.01 l -2.06,23.27 63.66,5.65 2.07,-23.27 c 1.56,-17.59 -11.43,-33.1 -29.01,-34.66"
         style="fill:#78c7f0;fill-opacity:1;fill-rule:nonzero;stroke:none"
         id="path62" /><path
         d="m 2696.1,3960.49 c -2.78,0 -5.16,2.13 -5.41,4.96 -0.26,2.98 1.95,5.62 4.94,5.89 l 69.17,6.15 c 2.98,0.19 5.63,-1.95 5.89,-4.94 0.27,-2.98 -1.94,-5.63 -4.93,-5.89 l -69.18,-6.15 -0.48,-0.02"
         style="fill:#78c7f0;fill-opacity:1;fill-rule:nonzero;stroke:none"
         id="path64" /><path
         d="m 2739.81,3860.7 c -2.77,0 -5.15,2.13 -5.4,4.96 l -9.13,102.87 c -0.27,2.98 1.94,5.62 4.93,5.89 3.06,0.32 5.64,-1.95 5.9,-4.94 l 9.12,-102.86 c 0.27,-2.99 -1.94,-5.63 -4.93,-5.9 l -0.49,-0.02"
         style="fill:#78c7f0;fill-opacity:1;fill-rule:nonzero;stroke:none"
         id="path66" /><path
         d="m 3823.84,3605.84 -83.32,-44.44 41.67,108.31"
         style="fill:#d4f1fc;fill-opacity:1;fill-rule:nonzero;stroke:none"
         id="path68" /><path
         d="m 4082.34,3744.32 c 0,-97.25 -78.83,-176.09 -176.08,-176.09 -97.26,0 -176.09,78.84 -176.09,176.09 0,97.25 78.83,176.09 176.09,176.09 97.25,0 176.08,-78.84 176.08,-176.09"
         style="fill:#d4f1fc;fill-opacity:1;fill-rule:nonzero;stroke:none"
         id="path70" /><path
         d="m 3957.96,3747.48 c -0.86,-27.09 -22.92,-49.15 -50.01,-50.02 -29.9,-0.95 -54.36,23.5 -53.4,53.4 0.86,27.09 22.92,49.15 50.01,50.01 29.91,0.96 54.36,-23.49 53.4,-53.39 z m 45.98,-21.19 c 1.94,7.3 2.98,14.96 2.98,22.86 0,7.34 -0.89,14.47 -2.58,21.28 l -16.19,-1.79 c -1.99,8.26 -5.19,16.06 -9.43,23.19 l 12.86,10.27 c -3.78,6.53 -8.46,12.67 -14.05,18.26 -2.17,2.17 -4.43,4.22 -6.77,6.11 l -1.85,1.48 c -2.67,2.06 -5.43,3.94 -8.27,5.65 l -10.25,-12.85 -2.47,1.47 c -0.93,0.54 -1.87,1.06 -2.83,1.56 -5.56,2.92 -11.49,5.23 -17.68,6.86 l 1.83,16.32 c -7.29,1.95 -14.95,2.98 -22.84,2.98 -7.34,0 -14.48,-0.89 -21.3,-2.59 l 1.81,-16.24 c -8.29,-1.95 -16.1,-5.12 -23.24,-9.31 l -10.23,12.8 c -6.53,-3.77 -12.68,-8.45 -18.26,-14.03 -5.2,-5.2 -9.59,-10.87 -13.23,-16.89 l 12.74,-10.18 c -4.39,-7.05 -7.75,-14.8 -9.9,-23.04 l -16.21,1.82 c -1.95,-7.3 -2.99,-14.96 -2.99,-22.85 0,-7.34 0.9,-14.48 2.58,-21.3 l 16.14,1.8 c 1.95,-8.28 5.15,-16.11 9.37,-23.26 l -12.74,-10.19 c 3.77,-6.54 8.45,-12.69 14.04,-18.27 5.19,-5.19 10.86,-9.6 16.89,-13.23 l 10.13,12.67 c 7.06,-4.39 14.82,-7.78 23.07,-9.94 l -1.8,-16.09 c 7.29,-1.95 14.93,-3 22.84,-3 7.34,0 14.47,0.9 21.29,2.59 l -1.77,16.02 c 8.32,1.96 16.16,5.16 23.33,9.39 l 10.11,-12.65 c 6.53,3.77 12.68,8.45 18.26,14.04 5.2,5.19 9.6,10.86 13.23,16.88 l -12.64,10.11 c 4.37,7.07 7.72,14.84 9.85,23.1 l 16.17,-1.81"
         style="fill:#78c7f0;fill-opacity:1;fill-rule:nonzero;stroke:none"
         id="path72" /><path
         d="M 4433.1,864.129 H 2815.18 V 1351.55 H 4433.1 V 864.129"
         style="fill:#ffffff;fill-opacity:1;fill-rule:nonzero;stroke:none"
         id="path74" /><path
         d="m 1802.51,864.129 h 1012.67 v 487.422 H 1802.51 Z"
         style="fill:#f0f0f0;fill-opacity:1;fill-rule:nonzero;stroke:none"
         id="path76" /><path
         d="m 2690.98,1436.31 v -122.52 h 1595.29 c 60.2,0 108.98,-48.8 108.98,-108.99 v -193.92 c 0,-60.189 -48.78,-108.982 -108.98,-108.982 H 2690.98 V 779.371 h 1653.31 c 104.21,0 188.69,84.488 188.69,188.699 v 279.55 c 0,104.21 -84.48,188.69 -188.69,188.69 H 2690.98"
         style="fill:#4e86cd;fill-opacity:1;fill-rule:nonzero;stroke:none"
         id="path78" /><path
         d="m 1709.57,1313.79 h 981.41 v 122.52 h -981.41 z"
         style="fill:#395bb2;fill-opacity:1;fill-rule:nonzero;stroke:none"
         id="path80" /><path
         d="m 1709.57,779.371 h 981.41 v 122.527 h -981.41 z"
         style="fill:#395bb2;fill-opacity:1;fill-rule:nonzero;stroke:none"
         id="path82" /><path
         d="m 1802.51,1193.22 h 1012.67 v 43.5117 H 1802.51 Z"
         style="fill:#cecdcc;fill-opacity:1;fill-rule:nonzero;stroke:none"
         id="path84" /><path
         d="m 1802.51,1058.45 h 1012.67 v 43.5117 H 1802.51 Z"
         style="fill:#cecdcc;fill-opacity:1;fill-rule:nonzero;stroke:none"
         id="path86" /><path
         d="m 1802.51,946.641 h 1012.67 v 43.5078 H 1802.51 Z"
         style="fill:#cecdcc;fill-opacity:1;fill-rule:nonzero;stroke:none"
         id="path88" /><path
         d="m 4093.24,1214.97 -1278.06,-21.76 v 43.51 z"
         style="fill:#e5e5e4;fill-opacity:1;fill-rule:nonzero;stroke:none"
         id="path90" /><path
         d="m 4225.22,1080.21 -1410.04,-21.76 v 43.5 z"
         style="fill:#e5e5e4;fill-opacity:1;fill-rule:nonzero;stroke:none"
         id="path92" /><path
         d="M 4093.24,968.398 2815.18,946.648 V 990.16 Z"
         style="fill:#e5e5e4;fill-opacity:1;fill-rule:nonzero;stroke:none"
         id="path94" /><path
         d="M 2097.44,1436.31 H 3390.56 V 2262.1 H 2097.44 c -78.39,0 -141.94,-63.55 -141.94,-141.93 v -541.93 c 0,-78.39 63.55,-141.93 141.94,-141.93"
         style="fill:#ef9012;fill-opacity:1;fill-rule:nonzero;stroke:none"
         id="path96" /><path
         d="m 2928.84,1521.06 h 1367.25 v 656.281 H 2928.84 Z"
         style="fill:#ffffff;fill-opacity:1;fill-rule:nonzero;stroke:none"
         id="path98" /><path
         d="M 4420.29,2262.1 V 2139.59 H 3075.66 c -60.19,0 -108.98,-48.8 -108.98,-108.99 v -362.79 c 0,-60.19 48.79,-108.98 108.98,-108.98 H 4420.29 V 1436.31 H 3017.64 c -104.21,0 -188.69,84.48 -188.69,188.69 v 448.41 c 0,104.22 84.48,188.69 188.69,188.69 h 1402.65"
         style="fill:#efb239;fill-opacity:1;fill-rule:nonzero;stroke:none"
         id="path100" /><path
         d="m 3268.69,2040.76 1027.4,21.76 v -43.51 z"
         style="fill:#e8e8e7;fill-opacity:1;fill-rule:nonzero;stroke:none"
         id="path102" /><path
         d="m 3055.95,1952.28 1240.14,21.74 v -43.5 z"
         style="fill:#e8e8e7;fill-opacity:1;fill-rule:nonzero;stroke:none"
         id="path104" /><path
         d="m 3136.7,1737.13 1159.39,21.76 v -43.52 z"
         style="fill:#e8e8e7;fill-opacity:1;fill-rule:nonzero;stroke:none"
         id="path106" /><path
         d="m 3268.69,1625.33 1027.4,21.76 v -43.51 z"
         style="fill:#e8e8e7;fill-opacity:1;fill-rule:nonzero;stroke:none"
         id="path108" /><path
         d="m 2425.66,2249.88 h 1835.73 v 169.25 H 2425.66 Z"
         style="fill:#ffffff;fill-opacity:1;fill-rule:nonzero;stroke:none"
         id="path110" /><path
         d="m 2425.66,2818.9 h 1835.73 v 169.242 H 2425.66 Z"
         style="fill:#5c8eb5;fill-opacity:1;fill-rule:nonzero;stroke:none"
         id="path112" /><path
         d="m 2329.64,2988.14 h 1991.95 v 169.258 H 2329.64 Z"
         style="fill:#efb239;fill-opacity:1;fill-rule:nonzero;stroke:none"
         id="path114" /><path
         d="m 2471.23,2649.64 h 1790.16 v 169.258 H 2471.23 Z"
         style="fill:#eb511c;fill-opacity:1;fill-rule:nonzero;stroke:none"
         id="path116" /><path
         d="M 4243.49,2419.13 H 2556.67 v 230.51 h 1686.82 v -230.51"
         style="fill:#6b605f;fill-opacity:1;fill-rule:nonzero;stroke:none"
         id="path118" /><path
         d="m 2747.89,2495.33 h 201.801 v 78.1172 H 2747.89 Z"
         style="fill:#a4a0a0;fill-opacity:1;fill-rule:nonzero;stroke:none"
         id="path120" /><path
         d="m 3060.35,2495.33 h 987.84 v 78.1172 h -987.84 z"
         style="fill:#a4a0a0;fill-opacity:1;fill-rule:nonzero;stroke:none"
         id="path122" /><path
         d="m 2615.26,2695.21 h 1432.93 v 78.1094 H 2615.26 Z"
         style="fill:#e88068;fill-opacity:1;fill-rule:nonzero;stroke:none"
         id="path124" /><path
         d="m 3331.72,2864.46 h 858.063 v 78.1211 H 3331.72 Z"
         style="fill:#f3f3e0;fill-opacity:1;fill-rule:nonzero;stroke:none"
         id="path126" /><path
         d="m 2425.66,3033.71 h 1764.12 v 78.1211 H 2425.66 Z"
         style="fill:#f3f3e0;fill-opacity:1;fill-rule:nonzero;stroke:none"
         id="path128" /><g
         id="g130"><g
           id="g132"
           clip-path="url(#clipPath136)"><path
             d="m 1402.23,2549.57 h 17.6211 v 69.9805 H 1402.23 Z"
             style="fill:#e1effa;fill-opacity:1;fill-rule:nonzero;stroke:none"
             id="path138" /></g></g><path
         d="m 2466,2618.12 c -0.15,0.48 -0.31,0.95 -0.47,1.43 0.16,-0.47 0.32,-0.95 0.47,-1.43"
         style="fill:#a5e2f9;fill-opacity:1;fill-rule:nonzero;stroke:none"
         id="path140" /><path
         d="m 2492.14,1055.4 c 0,-33.72 -3.07,-67.209 -9.06,-99.529 -8.27,-46.07 -22.6,-90.902 -42.64,-133.461 h -995.5 c -20.04,42.559 -34.37,87.391 -42.71,133.531 -6,32.25 -8.99,65.739 -8.99,99.459 0,246.15 165.63,464 402.64,529.6 73.35,20.18 125.35,82.2 129.52,154.37 0.22,3.51 0.29,7.03 0.29,10.53 0,0.88 0,1.91 -0.07,2.85 0.07,0.88 0.07,1.91 0.07,2.86 0,3.51 -0.07,7.02 -0.29,10.52 -4.17,72.19 -56.17,134.12 -129.52,154.39 -237.01,65.59 -402.64,283.37 -402.64,529.6 0,33.71 2.99,67.13 8.99,99.45 1.03,5.78 2.19,11.48 3.44,17.26 l 0.07,0.44 c 1.17,5.55 2.49,11.11 3.88,16.67 l 0.22,0.95 c 1.17,4.61 2.34,9.14 3.72,13.75 1.25,4.68 2.64,9.36 4.1,13.97 0.73,2.34 1.47,4.68 2.19,6.94 h 1045.68 c 0.73,-2.26 1.46,-4.6 2.19,-6.94 1.1,-3.44 2.12,-6.88 3.07,-10.31 0.66,-2.27 1.32,-4.47 1.83,-6.73 1.02,-3.59 1.97,-7.1 2.85,-10.68 0.59,-2.27 1.17,-4.53 1.61,-6.73 0.95,-3.65 1.76,-7.24 2.49,-10.89 0.36,-1.68 0.73,-3.44 1.09,-5.19 0.88,-4.17 1.69,-8.35 2.42,-12.51 5.99,-32.32 9.06,-65.74 9.06,-99.45 0,-246.23 -165.63,-464.01 -402.64,-529.6 -73.35,-20.27 -125.42,-82.2 -129.51,-154.39 -0.22,-3.5 -0.3,-7.01 -0.3,-10.52 0,-0.95 0,-1.98 0.08,-2.86 -0.08,-0.94 -0.08,-1.97 -0.08,-2.85 0,-3.5 0.08,-7.02 0.3,-10.53 4.09,-72.17 56.16,-134.19 129.51,-154.37 237.01,-65.6 402.64,-283.45 402.64,-529.6"
         style="fill:#ffffff;fill-opacity:1;fill-rule:nonzero;stroke:none"
         id="path142" /><path
         d="m 2440.44,822.41 h -3.68 v 472.8 c 35.62,-73.15 55.38,-154.8 55.38,-239.81 0,-21.93 -1.3,-43.77 -3.85,-65.252 -1.38,-11.539 -3.12,-22.976 -5.21,-34.277 -0.56,-3.082 -1.14,-6.16 -1.74,-9.23 -8.47,-42.832 -22.2,-84.512 -40.9,-124.231 m -28.91,0 h -666.85 v 540.7 21.4 c 20.48,11.15 42.77,20.89 66.53,29.04 25.41,8.73 40.39,34.09 36.96,59.74 25.92,-11.48 55.37,-22.66 87.57,-31.92 3.67,-104.7 6.94,-201.59 6.94,-225.57 0,-19.99 0.99,-26.68 2.13,-26.68 1.84,0 4.07,17.43 3.13,24.37 1.39,80.77 2.84,156.08 4.23,223.39 43.55,-11.27 91.68,-18.77 142.71,-18.78 0.03,0 0.06,0 0.08,0 67.26,0 139.54,13.06 212.89,47.59 40.49,-36.17 75.44,-78.14 103.68,-124.39 V 822.41 m -692.08,0 h -274.51 c -20.04,42.559 -34.37,87.391 -42.71,133.531 -6,32.25 -8.99,65.739 -8.99,99.459 0,147.27 59.29,284.41 157.68,384.87 55.86,17.34 113.05,45.97 169.76,89.77 v -12.25 c -13.8,-4.71 -23.75,-17.76 -23.83,-33.14 -10.68,-5.66 -21.03,-11.63 -31.01,-17.9 -25.92,-16.28 -33.74,-50.5 -17.45,-76.42 10.53,-16.76 28.56,-25.95 46.99,-25.95 8.15,0 16.38,1.8 24.07,5.53 v -547.5 m -142.99,535.49 c -18.32,0 -36.25,-9.08 -46.82,-25.68 -96.64,-151.9 -71.76,-322.45 -70.66,-329.64 4.21,-27.389 27.84,-47.01 54.7,-47.01 2.81,0 5.65,0.219 8.51,0.66 30.2,4.649 50.94,32.848 46.38,63.04 -0.32,2.26 -18.89,137.95 54.6,253.44 16.43,25.83 8.82,60.08 -17.01,76.52 -9.22,5.87 -19.52,8.67 -29.7,8.67 m 518.42,65.66 c -50.98,0 -99.09,7.56 -142.59,18.93 3.74,180 7.03,301.65 7.42,316.08 -0.01,-0.99 -0.02,-1.98 -0.02,-2.96 0,-0.03 0,-0.06 0,-0.09 v 0 0 c 0,-0.92 0,-1.91 0.08,-2.77 -0.08,-0.94 -0.08,-1.97 -0.08,-2.85 v 0 0 0 0 0 c 0,-3.5 0.08,-7.02 0.3,-10.53 4.09,-72.17 56.16,-134.19 129.51,-154.37 80.85,-22.38 153.4,-62.47 213.9,-115.37 -71.88,-33.44 -142.6,-46.06 -208.52,-46.07 m -159.34,23.55 c -32.72,9.51 -62.54,21 -88.66,32.73 -0.36,1.39 -0.77,2.77 -1.24,4.14 -7.9,22.99 -29.41,37.45 -52.43,37.45 -5.97,0 -12.04,-0.98 -18.01,-3.02 -0.48,-0.17 -0.96,-0.34 -1.44,-0.5 -5,2.99 -9.58,5.82 -13.74,8.45 -6.68,4.24 -12.24,7.95 -16.58,10.94 v 3.64 h -5.21 c -3.98,2.82 -6.01,4.39 -6.02,4.4 l -0.56,-0.73 -0.56,0.68 c -1.79,-1.47 -3.58,-2.92 -5.38,-4.35 h -5.03 v -3.98 c -53.9,-42.21 -108.16,-70.47 -161.3,-88.23 64.69,63.26 145.31,111.03 236.5,136.27 73.35,20.18 125.35,82.2 129.52,154.37 0.12,2.01 0.2,4.01 0.24,6.01 0,-21.84 5.23,-165.35 9.9,-298.27 m -180.44,63.98 c -3.39,2.93 -7.34,5.22 -11.66,6.7 v 12.91 c 6.1,-4.13 14.05,-9.31 23.65,-15.15 -4.03,-1.45 -8.03,-2.93 -11.99,-4.46 m 170.58,236.53 c 0.01,0.76 0.01,1.52 0.01,2.28 v 0 0 0 0 0 c 0,0.88 0,1.91 -0.07,2.85 0.07,0.88 0.07,1.91 0.07,2.86 v 0 0 0 0 0 c 0,0.56 0,1.13 -0.01,1.7 0.08,-3.29 0.08,-6.52 0,-9.69 m -2.72,38.66 c -5.33,28.75 -18.31,55.27 -37.1,77.37 20.8,-19.24 32.27,-48.36 37.1,-77.37 m 63.1,59.3 c 6.3,12.95 13.58,23.28 21.65,27.07 -8.15,-8.32 -15.4,-17.39 -21.65,-27.07 m 375.14,248.97 c 18.71,27.05 43.94,63.81 65.87,96.78 -18.49,-34.52 -40.6,-66.98 -65.87,-96.78 m -885.83,67.17 c -52.36,84.73 -82.13,184.01 -82.13,288.4 0,33.71 2.99,67.13 8.99,99.45 v 0 c 1.03,5.78 2.19,11.48 3.44,17.26 v 0 l 0.07,0.44 c 1.24,5.55 2.49,11.11 3.88,16.67 l 0.22,0.95 c 1.09,4.24 2.19,8.56 3.43,12.72 l 0.29,1.03 c 0.44,1.61 0.88,3.29 1.4,4.9 0.2,0.77 0.41,1.53 0.63,2.29 0.67,2.27 1.36,4.53 2.07,6.78 v 0 l 0.37,1.02 c 0.25,0.85 0.5,1.71 0.76,2.57 0.35,1.13 0.71,2.25 1.06,3.35 v 0 0 h 1045.68 v 0 0 c 0.35,-1.1 0.71,-2.21 1.06,-3.33 0.26,-0.87 0.51,-1.74 0.76,-2.59 l 0.37,-1.02 c 1.1,-3.44 2.12,-6.88 3.07,-10.31 0.66,-2.27 1.32,-4.47 1.83,-6.73 1.02,-3.59 1.97,-7.1 2.85,-10.68 0.59,-2.27 1.17,-4.53 1.61,-6.73 0.95,-3.65 1.76,-7.24 2.49,-10.89 v 0 c 0.16,-0.75 0.32,-1.52 0.49,-2.29 0.04,-0.2 0.08,-0.39 0.12,-0.59 0.16,-0.76 0.32,-1.54 0.48,-2.31 v 0 c 0.88,-4.17 1.69,-8.35 2.42,-12.51 5.99,-32.32 9.06,-65.74 9.06,-99.45 0,-48.03 -6.3,-94.98 -18.2,-139.93 -19.1,27.22 -97.2,41.46 -208.24,41.46 -86.67,0 -193.4,-8.67 -307.8,-26.62 -132.03,-20.71 -250.55,-50.05 -337.72,-81.3 -69.98,114.42 -51.93,246.43 -51.61,248.65 4.56,30.19 -16.18,58.4 -46.38,63.05 -2.86,0.44 -5.71,0.65 -8.52,0.65 -26.85,0 -50.48,-19.62 -54.69,-47.01 -1.06,-6.89 -23.99,-164.06 59.4,-310.91 -20.96,-12.48 -35.67,-24.77 -43.01,-36.44"
         style="fill:#eff8fd;fill-opacity:1;fill-rule:nonzero;stroke:none"
         id="path144" /><path
         d="m 1489.51,2126.5 c 0,0 86.66,-142.01 294.46,-207.32 53.21,-15.64 71.14,-27.17 101.77,-55.42 30.64,-28.25 41.09,-77.89 39.91,-117.16 -0.42,-30.41 17.03,-475.37 17.03,-530.8 0,-52.28 6.77,-13.55 5.26,-2.31 5.4,314.86 11.81,546.52 11.81,546.52 0,0 18.83,98.98 47.97,112.65 29.14,13.66 134.83,62.75 178.1,74.86 43.27,12.12 147.81,107.39 147.81,107.39 0,0 132.8,189.38 140.88,213.64 8.08,24.24 -60.05,26.55 -60.05,26.55 l -924.95,-168.6"
         style="fill:#f68c25;fill-opacity:1;fill-rule:nonzero;stroke:none"
         id="path146" /><path
         d="m 2478.19,2299.97 c 9.03,-57.5 -209.3,-139.49 -487.63,-183.15 -278.33,-43.66 -511.27,-32.44 -520.29,25.06 -9.02,57.49 209.31,139.5 487.63,183.15 278.33,43.66 511.28,32.44 520.29,-25.06"
         style="fill:#f9cc20;fill-opacity:1;fill-rule:nonzero;stroke:none"
         id="path148" /><path
         d="m 1793.21,1990.23 c -5.97,0 -12.04,0.97 -18.01,3.02 -39.72,13.64 -76.52,31.02 -109.36,51.66 -16.48,10.35 -25.64,27.95 -25.94,46.06 13.65,-0.51 27.96,-0.77 42.86,-0.77 40.6,0 85.61,1.9 133.74,5.77 25.5,-11.76 38.45,-41.16 29.14,-68.29 -7.9,-22.99 -29.41,-37.45 -52.43,-37.45"
         style="fill:#fbc68e;fill-opacity:1;fill-rule:nonzero;stroke:none"
         id="path150" /><path
         d="m 1682.76,2090.2 c -14.9,0 -29.21,0.26 -42.86,0.77 -0.18,10.37 2.56,20.92 8.49,30.36 10.53,16.76 28.56,25.95 46.99,25.95 10.08,0 20.27,-2.74 29.43,-8.5 25.65,-16.11 54.72,-29.8 86.4,-40.68 1.82,-0.63 3.59,-1.34 5.29,-2.13 -48.13,-3.87 -93.14,-5.77 -133.74,-5.77"
         style="fill:#fbe78c;fill-opacity:1;fill-rule:nonzero;stroke:none"
         id="path152" /><path
         d="m 1518.38,2198.16 c -83.39,146.85 -60.46,304.02 -59.4,310.91 4.21,27.39 27.84,47.01 54.69,47.01 2.81,0 5.66,-0.21 8.52,-0.65 30.2,-4.65 50.94,-32.86 46.38,-63.05 -0.32,-2.22 -18.37,-134.23 51.61,-248.65 -41.8,-15 -76.39,-30.43 -101.8,-45.57"
         style="fill:#f8fcfe;fill-opacity:1;fill-rule:nonzero;stroke:none"
         id="path154" /><path
         d="m 1576.46,2153.76 c -18.32,0 -36.25,9.07 -46.82,25.68 -3.95,6.21 -7.7,12.46 -11.26,18.72 25.41,15.14 60,30.57 101.8,45.57 0.98,-1.6 1.97,-3.19 2.99,-4.78 16.43,-25.83 8.82,-60.08 -17.01,-76.52 -9.22,-5.87 -19.52,-8.67 -29.7,-8.67"
         style="fill:#fbe78c;fill-opacity:1;fill-rule:nonzero;stroke:none"
         id="path156" /><path
         d="m 1695.38,1364.38 c -18.43,0 -36.46,9.19 -46.99,25.95 -16.29,25.92 -8.47,60.14 17.45,76.42 9.98,6.27 20.33,12.24 31.01,17.9 0,-0.07 0,-0.13 0,-0.2 0,-19.45 15.76,-35.21 35.21,-35.21 19.45,0 35.22,15.76 35.22,35.21 0,10.64 -4.72,20.18 -12.18,26.64 3.96,1.53 7.96,3.01 11.99,4.46 20.19,-12.28 47.73,-27.51 81.08,-42.26 3.43,-25.65 -11.55,-51.01 -36.96,-59.74 -23.76,-8.15 -46.05,-17.89 -66.53,-29.04 v 59.23 h -25.23 v -52.03 -21.8 c -7.69,-3.73 -15.92,-5.53 -24.07,-5.53 m 151.5,115.46 c -3.43,1.54 -6.8,3.09 -10.11,4.63 -25.06,11.73 -46.33,23.45 -63.01,33.44 0.48,0.16 0.96,0.33 1.44,0.5 5.97,2.04 12.04,3.02 18.01,3.02 23.02,0 44.53,-14.46 52.43,-37.45 0.47,-1.37 0.88,-2.75 1.24,-4.14"
         style="fill:#f8fcfe;fill-opacity:1;fill-rule:nonzero;stroke:none"
         id="path158" /><path
         d="m 1513.68,955.57 c -26.86,0 -50.49,19.621 -54.7,47.01 -1.1,7.19 -25.98,177.74 70.66,329.64 10.57,16.6 28.5,25.68 46.82,25.68 10.18,0 20.48,-2.8 29.7,-8.67 25.83,-16.44 33.44,-50.69 17.01,-76.52 -73.49,-115.49 -54.92,-251.18 -54.6,-253.44 4.56,-30.192 -16.18,-58.391 -46.38,-63.04 -2.86,-0.441 -5.7,-0.66 -8.51,-0.66"
         style="fill:#f8fcfe;fill-opacity:1;fill-rule:nonzero;stroke:none"
         id="path160" /><path
         d="m 2094.4,1602.84 c -63.7,17.55 -112.18,71.59 -115.99,137.56 -0.14,3.21 -0.29,6.36 -0.29,9.5 0,0.88 0,1.91 0.15,2.85 -0.15,0.88 -0.15,1.91 -0.15,2.86 0,3.14 0.15,6.29 0.29,9.51 3.81,65.95 52.29,120 115.99,137.55 239.93,66.4 416.25,286.37 416.25,547.45 0,35.09 -3.14,69.46 -9.36,102.81 -1.03,5.71 -2.12,11.34 -3.37,16.89 -0.87,4.1 -1.75,8.2 -2.78,12.29 l -0.14,0.73 c -0.51,2.12 -1.03,4.24 -1.61,6.36 -0.95,4.1 -1.97,8.05 -3.15,12.07 -1.68,6.14 -3.43,12.21 -5.33,18.28 h -19.38 c 0.66,-1.9 1.24,-3.94 1.82,-5.92 l 0.37,-1.02 c 1.1,-3.44 2.12,-6.88 3.07,-10.31 0.66,-2.27 1.32,-4.47 1.83,-6.73 1.02,-3.59 1.97,-7.1 2.85,-10.68 0.59,-2.27 1.17,-4.53 1.61,-6.73 0.95,-3.65 1.76,-7.24 2.49,-10.89 0.29,-1.25 0.51,-2.49 0.8,-3.73 l 0.29,-1.46 c 0.88,-4.17 1.69,-8.35 2.42,-12.51 5.99,-32.32 9.06,-65.74 9.06,-99.45 0,-246.23 -165.63,-464.01 -402.64,-529.6 -73.35,-20.27 -125.42,-82.2 -129.51,-154.39 -0.22,-3.5 -0.3,-7.01 -0.3,-10.52 0,-0.95 0,-1.98 0.08,-2.86 -0.08,-0.94 -0.08,-1.97 -0.08,-2.85 0,-3.5 0.08,-7.02 0.3,-10.53 4.09,-72.17 56.16,-134.19 129.51,-154.37 237.01,-65.6 402.64,-283.45 402.64,-529.6 0,-33.72 -3.07,-67.209 -9.06,-99.529 -8.27,-46.07 -22.6,-90.902 -42.64,-133.461 h -995.5 c -20.04,42.559 -34.37,87.391 -42.71,133.531 -6,32.25 -8.99,65.739 -8.99,99.459 0,246.15 165.63,464 402.64,529.6 73.35,20.18 125.35,82.2 129.52,154.37 0.22,3.51 0.29,7.03 0.29,10.53 0,0.88 0,1.91 -0.07,2.85 0.07,0.88 0.07,1.91 0.07,2.86 0,3.51 -0.07,7.02 -0.29,10.52 -4.17,72.19 -56.17,134.12 -129.52,154.39 -237.01,65.59 -402.64,283.37 -402.64,529.6 0,33.71 2.99,67.13 8.99,99.45 1.03,5.78 2.19,11.55 3.44,17.26 l 0.07,0.44 c 1.24,5.55 2.49,11.11 3.88,16.67 l 0.22,0.95 c 1.09,4.24 2.19,8.56 3.43,12.72 l 0.29,1.03 c 0.44,1.61 0.88,3.29 1.4,4.9 0.8,3.07 1.75,6.07 2.7,9.07 l 0.37,1.02 c 0.58,1.98 1.17,4.02 1.82,5.92 h -19.37 c -1.91,-6.07 -3.66,-12.14 -5.34,-18.28 -1.17,-4.02 -2.2,-7.97 -3.15,-12.07 -0.58,-2.12 -1.09,-4.24 -1.61,-6.36 l -0.14,-0.73 c -1.03,-4.09 -1.91,-8.19 -2.78,-12.29 -1.24,-5.55 -2.34,-11.18 -3.36,-16.89 -6.22,-33.35 -9.36,-67.72 -9.36,-102.81 0,-261.08 176.24,-481.05 416.25,-547.45 63.62,-17.55 112.17,-71.6 115.9,-137.55 0.22,-3.22 0.3,-6.37 0.3,-9.51 0,-0.95 0,-1.98 -0.08,-2.86 0.08,-0.94 0.08,-1.97 0.08,-2.85 0,-3.14 -0.08,-6.29 -0.3,-9.5 -3.73,-65.97 -52.28,-120.01 -115.9,-137.56 -240.01,-66.47 -416.25,-286.37 -416.25,-547.44 0,-35.11 3.14,-69.47 9.36,-102.818 9.5,-52.512 26.32,-102.383 49.21,-148.672 h 1018.76 c 22.89,46.289 39.71,96.16 49.22,148.672 6.22,33.348 9.36,67.708 9.36,102.818 0,261.07 -176.32,480.97 -416.25,547.44"
         style="fill:#bce1f7;fill-opacity:1;fill-rule:nonzero;stroke:none"
         id="path162" /><path
         d="m 2650.6,834.109 v 0 c 0,-29.679 -24.06,-53.718 -53.73,-53.718 H 1288.49 c -29.67,0 -53.72,24.039 -53.72,53.718 0,29.672 24.05,53.723 53.72,53.723 h 1308.38 c 29.67,0 53.73,-24.051 53.73,-53.723"
         style="fill:#264e78;fill-opacity:1;fill-rule:nonzero;stroke:none"
         id="path164" /><path
         d="m 2377.51,2278.27 c 0.86,-4.05 -10.08,-9.8 -24.43,-12.84 -14.35,-3.04 -26.68,-2.21 -27.54,1.85 -0.85,4.05 10.09,9.8 24.44,12.84 14.35,3.03 26.68,2.2 27.53,-1.85"
         style="fill:#f68c25;fill-opacity:1;fill-rule:nonzero;stroke:none"
         id="path166" /><path
         d="m 2344.47,2231.62 c 0.86,-4.06 -5.87,-8.91 -15.03,-10.86 -9.16,-1.93 -17.28,-0.21 -18.14,3.84 -0.86,4.05 5.87,8.92 15.03,10.85 9.16,1.94 17.28,0.22 18.14,-3.83"
         style="fill:#f68c25;fill-opacity:1;fill-rule:nonzero;stroke:none"
         id="path168" /><path
         d="m 2302.51,2243.94 c 0.86,-4.06 -5.87,-8.92 -15.02,-10.85 -9.16,-1.95 -17.28,-0.23 -18.14,3.82 -0.86,4.07 5.87,8.92 15.03,10.86 9.16,1.94 17.28,0.22 18.13,-3.83"
         style="fill:#f68c25;fill-opacity:1;fill-rule:nonzero;stroke:none"
         id="path170" /><path
         d="m 2012.82,2206.66 c 0.46,-2.19 -3.17,-4.81 -8.12,-5.86 -4.94,-1.04 -9.33,-0.12 -9.79,2.07 -0.46,2.19 3.17,4.82 8.12,5.86 4.94,1.05 9.32,0.12 9.79,-2.07"
         style="fill:#f68c25;fill-opacity:1;fill-rule:nonzero;stroke:none"
         id="path172" /><path
         d="m 2236.67,2274.67 c 0.46,-2.19 -3.18,-4.82 -8.13,-5.86 -4.94,-1.05 -9.32,-0.12 -9.79,2.07 -0.46,2.19 3.17,4.81 8.12,5.86 4.95,1.04 9.33,0.12 9.8,-2.07"
         style="fill:#f68c25;fill-opacity:1;fill-rule:nonzero;stroke:none"
         id="path174" /><path
         d="m 2155.52,2196.53 c 0.46,-2.18 -3.18,-4.81 -8.12,-5.86 -4.94,-1.04 -9.33,-0.11 -9.79,2.07 -0.47,2.19 3.17,4.82 8.11,5.86 4.95,1.05 9.33,0.12 9.8,-2.07"
         style="fill:#f68c25;fill-opacity:1;fill-rule:nonzero;stroke:none"
         id="path176" /><path
         d="m 2047.25,2144.78 c 0.46,-2.19 -3.17,-4.82 -8.11,-5.86 -4.95,-1.05 -9.34,-0.12 -9.8,2.07 -0.46,2.19 3.17,4.81 8.12,5.86 4.94,1.04 9.33,0.11 9.79,-2.07"
         style="fill:#f68c25;fill-opacity:1;fill-rule:nonzero;stroke:none"
         id="path178" /><path
         d="m 1948.97,1272.15 -3.79,1.48 -3.79,-1.48 c 0,0 -32.71,-255.78 -383.75,-384.318 192.3,0 313.85,0 390.05,0 101.94,0 122.66,0 122.66,0 56.94,0 140.28,0 262.37,0 -351.04,128.538 -383.75,384.318 -383.75,384.318"
         style="fill:#f68c25;fill-opacity:1;fill-rule:nonzero;stroke:none"
         id="path180" /><path
         d="m 2486.67,2613.75 c 0,-28.54 -243.55,-51.67 -543.98,-51.67 -300.44,0 -543.99,23.13 -543.99,51.67 0,28.54 243.55,51.67 543.99,51.67 300.43,0 543.98,-23.13 543.98,-51.67"
         style="fill:#bde0f2;fill-opacity:1;fill-rule:nonzero;stroke:none"
         id="path182" /><path
         d="M 2596.87,2693.3 H 1288.52 c -14.85,0 -28.31,-6 -38.03,-15.72 -9.73,-9.73 -15.72,-23.19 -15.72,-38.03 0,-29.62 24.05,-53.68 53.75,-53.68 h 111.96 19.37 1045.68 19.38 111.96 c 29.69,0 53.75,24.06 53.75,53.68 0,29.69 -24.06,53.75 -53.75,53.75"
         style="fill:#264e78;fill-opacity:1;fill-rule:nonzero;stroke:none"
         id="path184" /><path
         d="m 5653.52,802.191 -551.98,555.679 72.62,72.13 551.96,-555.68 c 19.92,-20.05 19.82,-52.449 -0.24,-72.379 -20.05,-19.91 -52.45,-19.8 -72.36,0.25"
         style="fill:#264e78;fill-opacity:1;fill-rule:nonzero;stroke:none"
         id="path186" /><path
         d="m 5686.21,841.879 -555.69,559.441 25.83,25.66 555.69,-559.441 c 7.09,-7.129 7.05,-18.648 -0.09,-25.738 -7.13,-7.082 -18.65,-7.039 -25.74,0.078"
         style="fill:#4e86cd;fill-opacity:1;fill-rule:nonzero;stroke:none"
         id="path188" /><path
         d="m 4929.41,1186.89 -346.22,348.55 405.7,402.98 346.22,-348.55 -405.7,-402.98"
         style="fill:#f4b12d;fill-opacity:1;fill-rule:nonzero;stroke:none"
         id="path190" /><path
         d="m 4706.44,1410.28 -72.37,72.85 405.7,402.98 72.36,-72.85 -405.69,-402.98"
         style="fill:#fabb46;fill-opacity:1;fill-rule:nonzero;stroke:none"
         id="path192" /><path
         d="m 4878.62,1148.51 -334.16,336.41 c -17.76,17.88 -17.66,46.78 0.22,64.54 l 2.85,2.83 c 17.88,17.76 46.78,17.66 64.54,-0.22 l 334.16,-336.41 c 17.76,-17.88 17.67,-46.77 -0.21,-64.54 l -2.86,-2.83 c -17.88,-17.76 -46.77,-17.67 -64.54,0.22"
         style="fill:#264e78;fill-opacity:1;fill-rule:nonzero;stroke:none"
         id="path194" /><path
         d="m 4875.76,1110.9 -368.91,371.41 36.34,13.4 346.22,-348.55 -13.65,-36.26"
         style="fill:#18354e;fill-opacity:1;fill-rule:nonzero;stroke:none"
         id="path196" /><path
         d="m 4844.23,1062.4 -386.1,388.69 c -9.95,10.02 -9.9,26.21 0.12,36.17 l 3.85,3.81 c 10.02,9.96 26.2,9.91 36.15,-0.11 l 386.11,-388.7 c 9.95,-10.02 9.89,-26.21 -0.13,-36.16 l -3.84,-3.81 c -10.02,-9.97 -26.21,-9.91 -36.16,0.11"
         style="fill:#264e78;fill-opacity:1;fill-rule:nonzero;stroke:none"
         id="path198" /><path
         d="m 5373.46,1640.03 -334.16,336.41 c -17.77,17.88 -46.66,17.97 -64.54,0.21 l -2.86,-2.82 c -17.88,-17.77 -17.97,-46.66 -0.21,-64.54 l 334.16,-336.42 c 17.76,-17.88 46.66,-17.98 64.54,-0.21 l 2.85,2.83 c 17.88,17.76 17.98,46.66 0.22,64.54"
         style="fill:#264e78;fill-opacity:1;fill-rule:nonzero;stroke:none"
         id="path200" /><path
         d="m 5411.07,1642.64 -368.91,371.4 -13.65,-36.26 346.22,-348.55 36.34,13.41"
         style="fill:#18354e;fill-opacity:1;fill-rule:nonzero;stroke:none"
         id="path202" /><path
         d="m 5459.79,1673.85 -386.1,388.69 c -9.95,10.02 -26.14,10.08 -36.16,0.13 l -3.84,-3.82 c -10.02,-9.95 -10.08,-26.14 -0.13,-36.16 l 386.11,-388.7 c 9.95,-10.02 26.13,-10.07 36.15,-0.12 l 3.85,3.82 c 10.02,9.95 10.07,26.14 0.12,36.16"
         style="fill:#264e78;fill-opacity:1;fill-rule:nonzero;stroke:none"
         id="path204" /><path
         d="m 4360.52,1053.21 h 656.88 c 97.11,0 175.84,-78.722 175.84,-175.839 H 4184.68 c 0,97.117 78.73,175.839 175.84,175.839"
         style="fill:#f4b12d;fill-opacity:1;fill-rule:nonzero;stroke:none"
         id="path206" /><path
         d="M 5190.98,854.559 H 4186.94 c -9.64,0 -17.45,7.812 -17.45,17.441 0,9.641 7.81,17.449 17.45,17.449 h 1004.04 c 9.64,0 17.45,-7.808 17.45,-17.449 0,-9.629 -7.81,-17.441 -17.45,-17.441"
         style="fill:#d28d19;fill-opacity:1;fill-rule:nonzero;stroke:none"
         id="path208" /><path
         d="M 5206.12,779.379 H 4171.8 c -27.06,0 -49,21.941 -49,49 0,27.062 21.94,48.992 49,48.992 h 1034.32 c 27.06,0 49,-21.93 49,-48.992 0,-27.059 -21.94,-49 -49,-49"
         style="fill:#264e78;fill-opacity:1;fill-rule:nonzero;stroke:none"
         id="path210" /><path
         d="m 5078.07,1005.9 c 0,-4.17 -3.38,-7.548 -7.55,-7.548 h -435.07 c -8.34,0 -15.11,6.758 -15.11,15.098 0,8.34 6.77,15.1 15.11,15.1 h 419.97 c 12.51,0 22.65,-10.14 22.65,-22.65"
         style="fill:#f9cc20;fill-opacity:1;fill-rule:nonzero;stroke:none"
         id="path212" /><path
         d="m 1037.28,1541.01 c 0.23,-0.14 159.31,-122.86 366,-122.91 103.34,-0.02 218.57,30.8 331.27,122.96 l -3.46,4.23 c -111.76,-91.36 -225.55,-121.71 -327.81,-121.73 -102.25,-0.01 -192.97,30.44 -258.11,60.91 -32.57,15.24 -58.73,30.48 -76.75,41.89 -9,5.71 -15.97,10.47 -20.68,13.79 -4.71,3.32 -7.12,5.18 -7.13,5.19 l -3.33,-4.33"
         style="fill:#1d2a30;fill-opacity:1;fill-rule:nonzero;stroke:none"
         id="path214" /><path
         d="m 1728.88,1541.01 c 0.24,-0.14 159.31,-122.86 366,-122.91 103.34,-0.02 218.56,30.8 331.27,122.96 l -3.46,4.23 c -111.76,-91.36 -225.55,-121.71 -327.81,-121.73 -102.25,-0.01 -192.97,30.44 -258.11,60.91 -32.56,15.24 -58.73,30.48 -76.75,41.89 -9,5.71 -15.97,10.47 -20.68,13.79 -4.7,3.32 -7.12,5.18 -7.13,5.19 l -3.33,-4.33"
         style="fill:#1d2a30;fill-opacity:1;fill-rule:nonzero;stroke:none"
         id="path216" /><path
         d="m 2417.45,1541.01 c 0.23,-0.14 159.31,-122.86 366,-122.91 103.33,-0.02 218.56,30.8 331.27,122.96 l -3.46,4.23 c -111.76,-91.36 -225.55,-121.71 -327.81,-121.73 -102.25,-0.01 -192.97,30.44 -258.11,60.91 -32.57,15.24 -58.74,30.48 -76.75,41.89 -9.01,5.71 -15.97,10.47 -20.68,13.79 -4.71,3.32 -7.12,5.18 -7.13,5.19 l -3.33,-4.33"
         style="fill:#1d2a30;fill-opacity:1;fill-rule:nonzero;stroke:none"
         id="path218" /><path
         d="m 1028.6,1504.23 h 22.7578 v 36.7109 H 1028.6 Z"
         style="fill:#4870c0;fill-opacity:1;fill-rule:nonzero;stroke:none"
         id="path220" /><path
         d="m 1051.36,1517.79 c -3.57,1.22 -7.4,1.88 -11.38,1.88 -3.98,0 -7.81,-0.66 -11.38,-1.88 v 23.15 h 22.76 v -3.31 -6.61 -13.23"
         style="fill:#395eb4;fill-opacity:1;fill-rule:nonzero;stroke:none"
         id="path222" /><path
         d="m 1052.18,1533.53 c 0.93,1.84 1.51,3.9 1.51,6.12 0,7.57 -6.14,13.7 -13.7,13.7 -7.58,0 -13.71,-6.13 -13.71,-13.7 0,-2.22 0.58,-4.28 1.5,-6.12 h 24.4"
         style="fill:#4e86cd;fill-opacity:1;fill-rule:nonzero;stroke:none"
         id="path224" /><path
         d="m 1027.37,667.551 h 25.2305 v 724.16 H 1027.37 Z"
         style="fill:#2e578c;fill-opacity:1;fill-rule:nonzero;stroke:none"
         id="path226" /><path
         d="m 1052.6,1363.11 v 0 28.6 h -25.23 v 52.03 h 25.23 v -80.63"
         style="fill:#d7d6d4;fill-opacity:1;fill-rule:nonzero;stroke:none"
         id="path228" /><path
         d="m 1027.37,1363.11 h 25.2305 v 28.6016 H 1027.37 Z"
         style="fill:#254671;fill-opacity:1;fill-rule:nonzero;stroke:none"
         id="path230" /><path
         d="m 1075.2,1484.45 c 0,-19.45 -15.77,-35.21 -35.22,-35.21 -19.45,0 -35.21,15.76 -35.21,35.21 0,19.45 15.76,35.22 35.21,35.22 19.45,0 35.22,-15.77 35.22,-35.22"
         style="fill:#4e86cd;fill-opacity:1;fill-rule:nonzero;stroke:none"
         id="path232" /><path
         d="m 1022.48,1475.7 c -5.22,0 -10.12,1.2 -14.57,3.24 l -0.19,1.87 c 0,19.45 15.77,35.22 35.22,35.22 5.21,0 10.11,-1.2 14.57,-3.24 l 0.18,-1.87 c 0,-19.46 -15.76,-35.22 -35.21,-35.22"
         style="fill:#5a93d5;fill-opacity:1;fill-rule:nonzero;stroke:none"
         id="path234" /><path
         d="m 1056.58,1384.18 h -33.2 l -7.27,74.52 h 47.74 l -7.27,-74.52"
         style="fill:#4e86cd;fill-opacity:1;fill-rule:nonzero;stroke:none"
         id="path236" /><path
         d="m 1026.13,715.832 v 0 h 27.7 c 6.19,-13.262 15.07,-22.371 25,-25.652 l 10.04,-3.321 h -97.78 l 10.04,3.321 c 9.93,3.281 18.82,12.39 25,25.652"
         style="fill:#264e78;fill-opacity:1;fill-rule:nonzero;stroke:none"
         id="path238" /><path
         d="M 1104.22,672.398 H 975.742 v 6.934 c 0,4.59 3.715,8.297 8.297,8.297 h 111.881 c 4.59,0 8.3,-3.707 8.3,-8.297 v -6.934"
         style="fill:#2e578c;fill-opacity:1;fill-rule:nonzero;stroke:none"
         id="path240" /><path
         d="M 1112.35,665.531 H 967.605 v 8.981 c 0,2.629 2.137,4.769 4.762,4.769 H 1107.6 c 2.62,0 4.75,-2.14 4.75,-4.769 v -8.981"
         style="fill:#264e78;fill-opacity:1;fill-rule:nonzero;stroke:none"
         id="path242" /><path
         d="m 1720.68,1504.23 h 22.7617 v 36.7109 H 1720.68 Z"
         style="fill:#4870c0;fill-opacity:1;fill-rule:nonzero;stroke:none"
         id="path244" /><path
         d="m 1720.68,1517.79 v 23.15 h 22.76 v -23.15 c -3.57,1.22 -7.4,1.88 -11.38,1.88 -3.98,0 -7.81,-0.66 -11.38,-1.88"
         style="fill:#395eb4;fill-opacity:1;fill-rule:nonzero;stroke:none"
         id="path246" /><path
         d="m 1744.26,1533.53 c 0.94,1.84 1.51,3.9 1.51,6.12 0,7.57 -6.14,13.7 -13.7,13.7 -7.58,0 -13.71,-6.13 -13.71,-13.7 0,-2.22 0.58,-4.28 1.51,-6.12 h 24.39"
         style="fill:#4e86cd;fill-opacity:1;fill-rule:nonzero;stroke:none"
         id="path248" /><path
         d="m 1719.45,667.551 h 25.2305 v 724.16 H 1719.45 Z"
         style="fill:#2e578c;fill-opacity:1;fill-rule:nonzero;stroke:none"
         id="path250" /><path
         d="m 1744.68,1384.51 v 7.2 h -25.23 v 52.03 h 25.23 v -59.23 0"
         style="fill:#cfd2d3;fill-opacity:1;fill-rule:nonzero;stroke:none"
         id="path252" /><path
         d="m 1744.68,1363.11 h -25.23 v 28.6 h 25.23 v -7.2 -21.4"
         style="fill:#254671;fill-opacity:1;fill-rule:nonzero;stroke:none"
         id="path254" /><path
         d="m 1767.28,1484.45 c 0,-19.45 -15.77,-35.21 -35.22,-35.21 -19.45,0 -35.21,15.76 -35.21,35.21 0,19.45 15.76,35.22 35.21,35.22 19.45,0 35.22,-15.77 35.22,-35.22"
         style="fill:#4e86cd;fill-opacity:1;fill-rule:nonzero;stroke:none"
         id="path256" /><path
         d="m 1714.56,1475.7 c -5.21,0 -10.12,1.2 -14.56,3.24 l -0.2,1.87 c 0,19.45 15.77,35.22 35.22,35.22 5.21,0 10.11,-1.2 14.56,-3.24 l 0.19,-1.87 c 0,-19.46 -15.76,-35.22 -35.21,-35.22"
         style="fill:#5a93d5;fill-opacity:1;fill-rule:nonzero;stroke:none"
         id="path258" /><path
         d="m 1748.66,1384.18 h -33.2 l -7.27,74.52 h 47.74 l -7.27,-74.52"
         style="fill:#4e86cd;fill-opacity:1;fill-rule:nonzero;stroke:none"
         id="path260" /><path
         d="m 1718.21,715.832 v 0 h 27.7 c 6.19,-13.262 15.07,-22.371 25,-25.652 l 10.04,-3.321 h -97.78 l 10.04,3.321 c 9.93,3.281 18.82,12.39 25,25.652"
         style="fill:#264e78;fill-opacity:1;fill-rule:nonzero;stroke:none"
         id="path262" /><path
         d="m 1796.3,672.398 h -128.48 v 6.934 c 0,4.59 3.72,8.297 8.3,8.297 H 1788 c 4.59,0 8.3,-3.707 8.3,-8.297 v -6.934"
         style="fill:#2e578c;fill-opacity:1;fill-rule:nonzero;stroke:none"
         id="path264" /><path
         d="m 1804.43,665.531 h -144.74 v 8.981 c 0,2.629 2.13,4.769 4.76,4.769 h 135.23 c 2.62,0 4.75,-2.14 4.75,-4.769 v -8.981"
         style="fill:#264e78;fill-opacity:1;fill-rule:nonzero;stroke:none"
         id="path266" /><path
         d="m 2412.77,1504.23 h 22.75 v 36.7109 h -22.75 z"
         style="fill:#4870c0;fill-opacity:1;fill-rule:nonzero;stroke:none"
         id="path268" /><path
         d="m 2435.52,1517.79 c -3.57,1.22 -7.39,1.88 -11.38,1.88 -3.98,0 -7.8,-0.66 -11.37,-1.88 v 23.15 h 22.75 v -6.04 -6.56 -10.55"
         style="fill:#395eb4;fill-opacity:1;fill-rule:nonzero;stroke:none"
         id="path270" /><path
         d="m 2436.34,1533.53 c 0.94,1.84 1.51,3.9 1.51,6.12 0,7.57 -6.14,13.7 -13.7,13.7 -7.57,0 -13.71,-6.13 -13.71,-13.7 0,-2.22 0.58,-4.28 1.51,-6.12 h 24.39"
         style="fill:#4e86cd;fill-opacity:1;fill-rule:nonzero;stroke:none"
         id="path272" /><path
         d="m 2411.53,667.551 h 25.2305 v 724.16 H 2411.53 Z"
         style="fill:#2e578c;fill-opacity:1;fill-rule:nonzero;stroke:none"
         id="path274" /><path
         d="m 2436.76,1363.11 v 0 28.6 h -25.23 v 44.6 h 25.23 v -73.2"
         style="fill:#2b4c9b;fill-opacity:1;fill-rule:nonzero;stroke:none"
         id="path276" /><path
         d="m 2411.53,1436.31 h 25.2305 v 7.4297 H 2411.53 Z"
         style="fill:#c5781c;fill-opacity:1;fill-rule:nonzero;stroke:none"
         id="path278" /><path
         d="m 2411.53,1363.11 h 25.2305 v 28.6016 H 2411.53 Z"
         style="fill:#254671;fill-opacity:1;fill-rule:nonzero;stroke:none"
         id="path280" /><path
         d="m 2459.36,1484.45 c 0,-19.45 -15.77,-35.21 -35.22,-35.21 -19.44,0 -35.21,15.76 -35.21,35.21 0,19.45 15.77,35.22 35.21,35.22 19.45,0 35.22,-15.77 35.22,-35.22"
         style="fill:#4e86cd;fill-opacity:1;fill-rule:nonzero;stroke:none"
         id="path282" /><path
         d="m 2406.64,1475.7 c -5.21,0 -10.12,1.2 -14.56,3.24 l -0.19,1.87 c 0,19.45 15.76,35.22 35.21,35.22 5.21,0 10.12,-1.2 14.56,-3.24 l 0.2,-1.87 c 0,-19.46 -15.77,-35.22 -35.22,-35.22"
         style="fill:#5a93d5;fill-opacity:1;fill-rule:nonzero;stroke:none"
         id="path284" /><path
         d="m 2440.74,1384.18 h -33.2 l -7.27,74.52 h 47.74 l -7.27,-74.52"
         style="fill:#4e86cd;fill-opacity:1;fill-rule:nonzero;stroke:none"
         id="path286" /><path
         d="m 2410.29,715.832 h 27.7 c 6.19,-13.262 15.07,-22.371 25,-25.652 l 10.04,-3.321 h -97.78 l 10.04,3.321 c 9.94,3.281 18.82,12.39 25,25.652"
         style="fill:#264e78;fill-opacity:1;fill-rule:nonzero;stroke:none"
         id="path288" /><path
         d="M 2488.38,672.398 H 2359.9 v 6.934 c 0,4.59 3.72,8.297 8.3,8.297 h 111.89 c 4.58,0 8.29,-3.707 8.29,-8.297 v -6.934"
         style="fill:#2e578c;fill-opacity:1;fill-rule:nonzero;stroke:none"
         id="path290" /><path
         d="m 2496.52,665.531 h -144.75 v 8.981 c 0,2.629 2.13,4.769 4.76,4.769 h 135.23 c 2.62,0 4.76,-2.14 4.76,-4.769 v -8.981"
         style="fill:#264e78;fill-opacity:1;fill-rule:nonzero;stroke:none"
         id="path292" /><path
         d="m 3104.85,1504.23 h 22.75 v 36.7109 h -22.75 z"
         style="fill:#4870c0;fill-opacity:1;fill-rule:nonzero;stroke:none"
         id="path294" /><path
         d="m 3127.6,1517.79 c -3.57,1.22 -7.39,1.88 -11.37,1.88 -3.99,0 -7.81,-0.66 -11.38,-1.88 v 23.15 h 22.75 v -23.15"
         style="fill:#395eb4;fill-opacity:1;fill-rule:nonzero;stroke:none"
         id="path296" /><path
         d="m 3128.42,1533.53 c 0.94,1.84 1.51,3.9 1.51,6.12 0,7.57 -6.14,13.7 -13.7,13.7 -7.57,0 -13.71,-6.13 -13.71,-13.7 0,-2.22 0.58,-4.28 1.51,-6.12 h 24.39"
         style="fill:#4e86cd;fill-opacity:1;fill-rule:nonzero;stroke:none"
         id="path298" /><path
         d="m 3103.61,667.551 h 25.2305 v 724.16 H 3103.61 Z"
         style="fill:#2e578c;fill-opacity:1;fill-rule:nonzero;stroke:none"
         id="path300" /><path
         d="m 3128.84,1363.11 v 0 28.6 h -25.23 v 44.6 h 25.23 v -73.2"
         style="fill:#3d6daf;fill-opacity:1;fill-rule:nonzero;stroke:none"
         id="path302" /><path
         d="m 3103.61,1436.31 h 25.2305 v 7.4297 H 3103.61 Z"
         style="fill:#c5932f;fill-opacity:1;fill-rule:nonzero;stroke:none"
         id="path304" /><path
         d="m 3103.61,1363.11 h 25.2305 v 28.6016 H 3103.61 Z"
         style="fill:#254671;fill-opacity:1;fill-rule:nonzero;stroke:none"
         id="path306" /><path
         d="m 3151.43,1484.45 c 0,-19.45 -15.76,-35.21 -35.2,-35.21 -19.45,0 -35.22,15.76 -35.22,35.21 0,19.45 15.77,35.22 35.22,35.22 19.44,0 35.2,-15.77 35.2,-35.22"
         style="fill:#4e86cd;fill-opacity:1;fill-rule:nonzero;stroke:none"
         id="path308" /><path
         d="m 3098.72,1475.7 c -5.21,0 -10.12,1.2 -14.57,3.24 l -0.19,1.87 c 0,19.45 15.77,35.22 35.22,35.22 5.21,0 10.12,-1.2 14.57,-3.24 l 0.19,-1.87 c 0,-19.46 -15.77,-35.22 -35.22,-35.22"
         style="fill:#5a93d5;fill-opacity:1;fill-rule:nonzero;stroke:none"
         id="path310" /><path
         d="m 3132.82,1384.18 h -33.2 l -7.27,74.52 h 47.75 l -7.28,-74.52"
         style="fill:#4e86cd;fill-opacity:1;fill-rule:nonzero;stroke:none"
         id="path312" /><path
         d="m 3102.38,715.832 v 0 h 27.69 c 6.19,-13.262 15.07,-22.371 25,-25.652 l 10.05,-3.321 h -97.79 l 10.04,3.321 c 9.94,3.281 18.82,12.39 25.01,25.652"
         style="fill:#264e78;fill-opacity:1;fill-rule:nonzero;stroke:none"
         id="path314" /><path
         d="m 3180.46,672.398 h -128.48 v 6.934 c 0,4.59 3.72,8.297 8.3,8.297 h 111.89 c 4.58,0 8.29,-3.707 8.29,-8.297 v -6.934"
         style="fill:#2e578c;fill-opacity:1;fill-rule:nonzero;stroke:none"
         id="path316" /><path
         d="m 3188.6,665.531 h -144.75 v 8.981 c 0,2.629 2.13,4.769 4.76,4.769 h 135.23 c 2.62,0 4.76,-2.14 4.76,-4.769 v -8.981"
         style="fill:#264e78;fill-opacity:1;fill-rule:nonzero;stroke:none"
         id="path318" /><path
         d="m 3123.28,3659.81 c 12.62,-13.4 29.4,-22.89 47.61,-24.33 22.01,-1.74 49.95,11.18 56.13,34.06 -13.92,0.83 -12.97,19.48 -13.43,30.1 -0.46,10.53 -0.05,21.36 0.47,29.16 0.41,6.58 0.87,10.94 0.87,10.94 l -82.6,52.52 c 4.1,-24.95 6.29,-50.32 5.7,-75.6 -0.4,-17.3 0.21,-45.19 -24.71,-44.15 2.92,-4.5 6.26,-8.77 9.96,-12.7"
         style="fill:#f7998e;fill-opacity:1;fill-rule:nonzero;stroke:none"
         id="path320" /><path
         d="m 3164.06,3747.34 c 0,0 22.69,-32.55 49.53,-47.7 -0.46,10.53 -0.05,21.36 0.47,29.16 l -50,18.54"
         style="fill:#ef8680;fill-opacity:1;fill-rule:nonzero;stroke:none"
         id="path322" /><path
         d="m 3279.37,3852.75 c 0,0 11.56,-120.29 -32.35,-146.92 -19.78,-11.99 -84.42,42.77 -84.42,42.77 0,0 -42.35,36.56 -35.09,78.94 13.71,80.03 139.47,104.87 151.86,25.21"
         style="fill:#f7998e;fill-opacity:1;fill-rule:nonzero;stroke:none"
         id="path324" /><path
         d="m 3300.63,3898.5 c -1.2,0.84 -11.43,-6.92 -45.49,19.87 -13.79,10.85 -38.65,16.35 -66.78,9.45 -25,-6.14 -32.45,-26.35 -32.45,-26.35 0,0 -19.62,4.18 -35.2,-15.61 -34.52,-43.85 10.68,-144.12 16.58,-145.63 5.9,-1.51 -7.4,65.66 20.74,64.87 16.72,-0.48 21.98,-29.44 24.68,-26.74 2.69,2.69 -0.24,36.14 2.46,43.5 0.68,1.87 5.49,5.48 10.68,4.81 13.08,-1.71 10.39,20.24 21.16,23.54 6.76,2.07 27.59,1.53 41.57,-2.17 54.99,-14.53 61.05,37.26 42.05,50.46"
         style="fill:#25386b;fill-opacity:1;fill-rule:nonzero;stroke:none"
         id="path326" /><path
         d="m 3155.66,3794.51 c 2.32,1.05 6.2,1.35 9.09,-4.59 2.95,-6.06 0.47,-5.59 -0.17,-9.3 -0.63,-3.71 2.93,-3.56 3.96,-6.76 1.02,-3.2 -0.22,-10.74 -6.83,-9.33 -6.6,1.4 -8.13,11.48 -8.9,14.49 -0.77,3.02 -2.05,13.27 2.85,15.49"
         style="fill:#ef8680;fill-opacity:1;fill-rule:nonzero;stroke:none"
         id="path328" /><path
         d="m 3061.83,3278.8 c 0,0 133.22,-15.13 163.89,-15.76 30.67,-0.63 29.15,15.39 29.15,15.39 1.56,33.76 7.28,113.31 13.63,140.26 5.91,25.18 8.54,34.47 13.7,58.39 11.46,53.16 10.95,63.31 23.09,128.93 l -79.57,63.96 c 0,0 -8.24,-24.48 -41.59,-24.9 -44.58,-0.57 -58.46,30.66 -58.46,30.66 l -108.53,-72.06 -10.18,-175.29 40.78,-134.22 14.09,-15.36"
         style="fill:#3c94bf;fill-opacity:1;fill-rule:nonzero;stroke:none"
         id="path330" /><path
         d="m 3429.66,2829.93 c 0,0 -4.28,-25.6 -7.68,-34.35 -3.41,-8.75 -32.13,-0.68 -34.02,4.97 -1.89,5.66 9.03,47.29 9.03,47.29 l 32.67,-17.91"
         style="fill:#ed8c73;fill-opacity:1;fill-rule:nonzero;stroke:none"
         id="path332" /><path
         d="m 3377.96,2793.32 c -2.49,-9.44 -5.62,-27.55 -5.62,-27.55 l 28.7,-12.51 4.71,4.43 c 0,0 7.12,-8.63 15.93,-12.7 6.53,-3.02 20.62,-6.93 27.79,-7.71 25.05,-2.7 43.5,2.02 44.98,5.49 6.22,14.52 -27.03,18.41 -33.62,20.14 -18.95,4.99 -29.48,21.07 -31.5,31.56 -1.47,7.61 0.42,8.95 -3.83,8.71 0,0 -3.73,0.2 -7.18,-3.37 -5.31,-5.46 -13.29,-7.96 -20.4,-4.74 -4.06,1.85 -7.91,4.54 -10.18,8.48 0,0 -7.3,-0.79 -9.78,-10.23"
         style="fill:#353435;fill-opacity:1;fill-rule:nonzero;stroke:none"
         id="path334" /><path
         d="m 3302.78,3164.58 c 44.89,-8.82 99.2,-15.36 144.55,-9.38 -6.33,-18.17 -19.88,-35.56 -25.8,-61.16 -19.56,-84.53 -26.34,-198.07 -31.31,-268.32 0,0 9.39,-18.03 39.48,-4.3 44.95,111.02 123.43,336.01 122.69,384.82 -0.92,62.13 -156.01,77.13 -269.68,92.44 l 20.07,-134.1"
         style="fill:#25386b;fill-opacity:1;fill-rule:nonzero;stroke:none"
         id="path336" /><path
         d="m 3380.66,3159.67 c 0.72,36.44 -1.11,63.22 -7.64,74.79 -5.77,10.21 -36.36,21.71 -71.55,31.87 h 169.71 c 24.2,-6.27 46.34,-15.33 64.19,-28.49 0,0 -18.81,1.21 -40.76,1.21 -15.65,0 -32.9,-0.61 -46.07,-2.74 -13.31,-2.14 -26.69,-5.39 -38.22,-12.38 -11.51,-6.99 -21.05,-18.21 -23.36,-31.48 -1.18,-6.83 -0.45,-13.9 -1.82,-20.68 -0.86,-4.24 -2.55,-8.22 -4.48,-12.1"
         style="fill:#1a2545;fill-opacity:1;fill-rule:nonzero;stroke:none"
         id="path338" /><path
         d="m 3302.64,2818.9 h -20.59 c -8.14,50.25 -18.69,111.27 -23.72,169.24 h 19.6 c 6,-59.27 17,-120.52 24.71,-169.24"
         style="fill:#4f7b9e;fill-opacity:1;fill-rule:nonzero;stroke:none"
         id="path340" /><path
         d="m 3277.93,2988.14 h -19.6 c -1.35,15.51 -2.3,30.77 -2.71,45.57 h 18.79 c 0.74,-14.89 1.97,-30.16 3.52,-45.57 m -1.6,123.69 h -15.93 c 0.33,1.76 0.68,3.5 1.05,5.22 1.69,8.1 3.79,15.6 6.39,22.6 -45.96,-6.1 -88.45,-11.99 -130.01,-11.99 -34.76,0 -68.86,4.12 -103.79,15.69 -8.2,2.7 -13.6,6.6 -18.2,11.9 h 44.43 c 21.25,-6.92 43.71,-10.22 65.93,-11.94 10.07,-0.78 20.14,-1.12 30.22,-1.12 36.42,0 72.81,4.49 108.87,9.23 6.93,0.9 13.85,1.83 20.78,2.75 -4.61,-12.45 -7.76,-26.72 -9.74,-42.34"
         style="fill:#d09a33;fill-opacity:1;fill-rule:nonzero;stroke:none"
         id="path342" /><path
         d="m 3369.46,2668.45 c -7.7,0 -19.29,1.25 -25.32,2.8 -9.39,2.5 -17.9,9.8 -17.9,9.8 l -3.9,-5.2 -30.4,7.4 c 0,0 0,5.43 0.13,11.96 h 101.57 c 11.5,-0.81 24.96,-3.46 22.6,-13.46 -0.9,-3.7 -18.19,-11.5 -43.4,-13.2 -1,-0.07 -2.14,-0.1 -3.38,-0.1 m -60.33,104.87 h -20.11 c -1.88,13.7 -4.29,29.06 -6.97,45.58 h 20.59 c 2.67,-16.9 4.95,-32.29 6.49,-45.58"
         style="fill:#cc4820;fill-opacity:1;fill-rule:nonzero;stroke:none"
         id="path344" /><path
         d="m 3393.64,2695.21 h -101.57 c 0.11,5.46 0.31,11.68 0.67,16.14 0.81,9.7 7.81,11.7 7.81,11.7 h 0.09 c -0.6,4.7 -0.49,13.6 -0.09,22.3 -2.81,0.9 -5.61,1.9 -8.61,3.2 -0.68,7.45 -1.68,15.75 -2.92,24.77 h 20.11 c 0.41,-3.57 0.77,-6.99 1.07,-10.25 10.38,-4.61 19.31,-6.17 26.66,-6.17 2.04,0 3.96,0.12 5.75,0.33 0.04,-2.61 0.08,-5.2 0.13,-7.78 0,0 -1.9,-1.6 -5.49,-3.2 -0.11,-5.4 -0.31,-11.9 -0.71,-17.4 l 1.3,0.4 c 0.7,0.17 1.23,0.26 1.65,0.26 2.04,0 1.33,-2.18 3.65,-8.16 3.8,-10 16.9,-24 36.5,-25.6 2.36,-0.21 7.9,-0.11 14,-0.54"
         style="fill:#ca6e59;fill-opacity:1;fill-rule:nonzero;stroke:none"
         id="path346" /><path
         d="m 3274.41,3033.71 h -18.79 c -0.78,28.44 0.46,55.11 4.78,78.12 h 15.93 c -2.98,-23.55 -3.3,-50.16 -1.92,-78.12"
         style="fill:#d3d2c0;fill-opacity:1;fill-rule:nonzero;stroke:none"
         id="path348" /><path
         d="m 3390.17,2818.9 h -17.69 c 0.98,13.88 2.03,29.24 3.24,45.56 h 17.21 c -0.99,-13.9 -1.87,-26.93 -2.71,-38.74 0,0 0.33,-0.63 1.06,-1.57 -0.38,-1.76 -0.76,-3.52 -1.11,-5.25 m 9.08,123.68 h -16.84 c 1.53,15.12 3.24,30.4 5.18,45.56 h 16.47 c -1.81,-15.25 -3.4,-30.53 -4.81,-45.56"
         style="fill:#4f7b9e;fill-opacity:1;fill-rule:nonzero;stroke:none"
         id="path350" /><path
         d="m 3404.06,2988.14 h -16.47 c 1.97,15.42 4.18,30.7 6.66,45.57 h 15.94 c -2.29,-14.96 -4.32,-30.24 -6.13,-45.57 m 23.1,123.69 h -11.67 c 0.89,1.77 1.77,3.51 2.65,5.22 4.2,8.2 8.2,15.8 10.9,23.6 -11.97,-1.55 -24.6,-2.21 -37.53,-2.21 -3.81,0 -7.64,0.06 -11.5,0.17 0.21,5.26 0.39,10.37 0.52,15.31 9.63,-0.66 19.25,-1.02 28.71,-1.02 13.11,0 25.92,0.7 38.09,2.3 -4.75,-13.63 -13.56,-26.82 -20.17,-43.37"
         style="fill:#d09a33;fill-opacity:1;fill-rule:nonzero;stroke:none"
         id="path352" /><path
         d="m 3373.71,2773.32 h -12.86 c -0.03,2.8 -0.06,5.61 -0.07,8.44 3,6.67 8.76,7.29 8.76,7.29 0.21,4.5 1.7,12.6 3.51,20.6 l -1.11,1.6 c 0.18,2.49 0.36,5.05 0.54,7.65 h 17.69 c -1.27,-6.17 -2.24,-11.87 -2.41,-15.39 0,0.01 -0.01,0.02 -0.02,0.04 0,0 -7.3,-0.79 -9.78,-10.23 -1.45,-5.49 -3.11,-13.91 -4.25,-20"
         style="fill:#cc4820;fill-opacity:1;fill-rule:nonzero;stroke:none"
         id="path354" /><path
         d="m 3445.86,2721.95 c -4.54,0 -9.44,0.24 -14.62,0.8 -7.2,0.8 -21.3,4.7 -27.8,7.7 -8.8,4.1 -15.9,12.7 -15.9,12.7 l -4.8,-4.4 -28.7,12.5 c 0,0 0.75,4.23 1.81,9.66 3.39,1.6 5.16,3.07 5.16,3.07 -0.07,3.1 -0.12,6.21 -0.16,9.34 h 12.86 c -0.82,-4.38 -1.37,-7.55 -1.37,-7.55 l 28.7,-12.51 4.71,4.43 c 0,0 7.12,-8.63 15.93,-12.7 6.53,-3.02 20.62,-6.93 27.79,-7.71 5.19,-0.56 10.09,-0.8 14.62,-0.8 3.87,0 7.46,0.18 10.72,0.48 2.13,-2.37 2.91,-5.24 1.43,-8.71 -1.18,-2.77 -13.06,-6.3 -30.38,-6.3"
         style="fill:#ca6e59;fill-opacity:1;fill-rule:nonzero;stroke:none"
         id="path356" /><path
         d="m 3392.93,2864.46 h -17.21 c 1.81,24.41 3.95,51.01 6.69,78.12 h 16.84 c -2.6,-27.49 -4.61,-54.11 -6.32,-78.12"
         style="fill:#d3d2c0;fill-opacity:1;fill-rule:nonzero;stroke:none"
         id="path358" /><path
         d="m 3410.19,3033.71 h -15.94 c 2.66,15.89 5.64,31.29 8.99,45.84 2.87,12.31 7.51,22.77 12.25,32.28 h 11.67 c -2.19,-5.51 -4.15,-11.39 -5.63,-17.79 -4.38,-18.92 -8.12,-39.31 -11.34,-60.33"
         style="fill:#d3d2c0;fill-opacity:1;fill-rule:nonzero;stroke:none"
         id="path360" /><path
         d="m 3404.54,2793.64 c -2.22,0 -4.46,0.45 -6.62,1.43 -4.05,1.84 -7.89,4.53 -10.16,8.44 0.17,3.52 1.14,9.22 2.41,15.39 v 0 c 0.35,1.73 0.73,3.49 1.11,5.25 2.1,-2.68 7.52,-7.88 18.01,-7.88 1.88,0 3.91,0.16 6.12,0.54 -1.34,-3.38 -2.67,-6.67 -3.97,-9.86 l -1.69,-0.7 c -0.7,-3.76 -1.59,-8.19 -2.54,-12.39 -0.88,-0.14 -1.77,-0.22 -2.67,-0.22"
         style="fill:#cd7963;fill-opacity:1;fill-rule:nonzero;stroke:none"
         id="path362" /><path
         d="m 3464.09,2736.48 c -4.53,0 -9.43,0.24 -14.62,0.8 -7.17,0.78 -21.26,4.69 -27.79,7.71 -8.81,4.07 -15.93,12.7 -15.93,12.7 l -4.71,-4.43 -28.7,12.51 c 0,0 0.55,3.17 1.37,7.55 1.14,6.09 2.8,14.51 4.25,20 2.48,9.44 9.78,10.23 9.78,10.23 0.01,-0.02 0.02,-0.03 0.02,-0.04 2.27,-3.91 6.11,-6.6 10.16,-8.44 2.16,-0.98 4.4,-1.43 6.62,-1.43 0.9,0 1.79,0.08 2.67,0.22 -0.42,-1.84 -0.84,-3.64 -1.27,-5.31 l 1.31,0.1 c 0.26,0.02 0.5,0.02 0.71,0.02 3.36,0 1.76,-1.58 3.08,-8.72 2.1,-10.5 12.6,-26.6 31.5,-31.6 5.02,-1.29 25.48,-3.86 32.27,-11.39 -3.26,-0.3 -6.85,-0.48 -10.72,-0.48"
         style="fill:#2d2c2c;fill-opacity:1;fill-rule:nonzero;stroke:none"
         id="path364" /><path
         d="m 3409.29,2816.27 c -10.49,0 -15.91,5.2 -18.01,7.88 -0.73,0.94 -1.06,1.57 -1.06,1.57 0.84,11.81 1.72,24.84 2.71,38.74 1.71,24.01 3.72,50.63 6.32,78.12 1.41,15.03 3,30.31 4.81,45.56 1.81,15.33 3.84,30.61 6.13,45.57 3.22,21.02 6.96,41.41 11.34,60.33 1.48,6.4 3.44,12.28 5.63,17.79 6.61,16.55 15.42,29.74 20.17,43.37 -12.17,-1.6 -24.98,-2.3 -38.09,-2.3 -9.46,0 -19.08,0.36 -28.71,1.02 0.01,0.45 0.02,0.88 0.03,1.33 h 148.08 c -2.4,-11.2 -5.7,-24.1 -9.7,-38.2 -23.91,-86.14 -70.96,-218.74 -103.53,-300.24 -2.21,-0.38 -4.24,-0.54 -6.12,-0.54"
         style="fill:#21305a;fill-opacity:1;fill-rule:nonzero;stroke:none"
         id="path366" /><path
         d="m 3355.53,2770.85 c 0,0 0.23,-25.95 -1.6,-35.16 -1.84,-9.22 -31.53,-6.25 -34.38,-1 -2.84,5.24 0.7,48.14 0.7,48.14"
         style="fill:#ed8c73;fill-opacity:1;fill-rule:nonzero;stroke:none"
         id="path368" /><path
         d="m 3310.96,2725.83 c -0.81,-9.73 -0.75,-28.11 -0.75,-28.11 l 30.43,-7.34 3.87,5.18 c 0,0 8.51,-7.27 17.89,-9.75 6.97,-1.84 21.52,-3.25 28.7,-2.77 25.15,1.68 42.49,9.52 43.36,13.2 3.61,15.37 -29.81,13.44 -36.62,14.01 -19.52,1.62 -32.67,15.64 -36.48,25.62 -2.77,7.24 -1.15,8.88 -5.3,7.91 0,0 -3.7,-0.45 -6.48,-4.56 -4.28,-6.3 -11.71,-10.15 -19.26,-8.2 -4.32,1.11 -8.58,3.1 -11.49,6.58 0,0 -7.05,-2.04 -7.87,-11.77"
         style="fill:#353435;fill-opacity:1;fill-rule:nonzero;stroke:none"
         id="path370" /><path
         d="m 3026.67,3294.16 c -7.26,-16.9 -11.31,-35.52 -13.05,-53.78 -1.51,-15.82 0.3,-32.19 6.3,-46.97 6.84,-16.86 20.28,-31.34 37.86,-37.33 21.98,-7.49 45.33,-10.99 68.42,-12.77 46.48,-3.58 93.06,2.06 139.09,8.11 6.93,0.9 13.85,1.83 20.78,2.75 -35.74,-96.57 16.06,-303.41 24.13,-391.1 32.45,-14.4 50.81,0.91 50.81,0.91 -3.7,178.51 36.09,427.82 12.01,470.48 -14.63,25.93 -189.34,60.15 -192.81,59.7 h -153.54"
         style="fill:#25386b;fill-opacity:1;fill-rule:nonzero;stroke:none"
         id="path372" /><path
         d="m 3394.08,3339.4 c -46.53,67.06 -71.38,119.9 -111.88,190.76 l -56.48,139.81 c 0,0 19.03,-1.05 22.74,-1.35 15.88,-1.25 32.03,-3.34 47.04,-8.9 21.59,-7.99 43.88,-22.68 54.38,-43.76 9.38,-18.81 15.1,-39.25 23.03,-58.66 8.87,-21.7 18.26,-43.17 27.73,-64.6 18.78,-42.55 38.04,-84.99 53.88,-128.75 l -60.44,-24.55"
         style="fill:#3c94bf;fill-opacity:1;fill-rule:nonzero;stroke:none"
         id="path374" /><path
         d="m 3316.73,3468 -26.5,47.98 c 9.44,-16.78 18.09,-32.62 26.5,-47.97 V 3468"
         style="fill:#d2d1cf;fill-opacity:1;fill-rule:nonzero;stroke:none"
         id="path376" /><path
         d="m 3316.73,3468.01 c -8.41,15.35 -17.06,31.19 -26.5,47.97 l -0.21,0.39 7.58,45.37 35.12,-76.97 c -7.47,-2.78 -13.47,-8.86 -15.99,-16.76"
         style="fill:#2e779e;fill-opacity:1;fill-rule:nonzero;stroke:none"
         id="path378" /><path
         d="m 3016.67,3606.01 c -7.6,-109.27 -7.2,-226.05 17.39,-333.37 0.69,-3.01 5.82,-2.43 5.49,0.74 -5.73,55.38 -14.35,110.13 -17.34,165.82 -2.99,55.55 -2.7,111.26 0.16,166.81 0.19,3.68 -5.44,3.63 -5.7,0"
         style="fill:#100f0d;fill-opacity:1;fill-rule:nonzero;stroke:none"
         id="path380" /><path
         d="m 3092.24,3266.33 h 430.371 v 15.4766 H 3092.24 Z"
         style="fill:#adbce5;fill-opacity:1;fill-rule:nonzero;stroke:none"
         id="path382" /><path
         d="m 3599.38,3266.33 h -344.51 l 61.77,201.38 c 3.41,11.12 13.68,18.72 25.31,18.72 h 301.7 c 11.56,0 19.81,-11.17 16.42,-22.22 l -60.69,-197.88"
         style="fill:#adbce5;fill-opacity:1;fill-rule:nonzero;stroke:none"
         id="path384" /><path
         d="m 3603.7,3266.33 h -339.32 l 61.77,201.38 c 3.41,11.12 13.68,18.72 25.31,18.72 h 301.7 c 11.56,0 19.82,-11.17 16.43,-22.22 l -59.18,-192.92 c -0.91,-2.95 -3.62,-4.96 -6.71,-4.96"
         style="fill:#e4e9f7;fill-opacity:1;fill-rule:nonzero;stroke:none"
         id="path386" /><path
         d="m 3239.41,3252.83 c -28.57,0 -76.88,6.59 -119.24,13.5 h 134.7 9.51 28.63 c -12.55,-7.84 -52.76,-13.5 -52.76,-13.5 -0.28,0 -0.56,0 -0.84,0"
         style="fill:#1e2e53;fill-opacity:1;fill-rule:nonzero;stroke:none"
         id="path388" /><path
         d="m 3047.75,3294.16 h -10.47 c -2.17,18.99 -4.56,37.92 -6.82,56.88 l 17.28,-56.88 h 0.01 m -20.66,12.6 c -15.86,58.05 -42.11,203.33 -43.04,284.84 -0.17,14.59 0.34,30.44 9.48,41.83 4.8,5.99 11.54,10.1 18.38,13.59 39.76,20.33 69.2,25.88 113.76,28.71 l -2.86,-1.9 c -2.33,-0.87 -5.03,-1.34 -8.15,-1.34 -0.44,0 -0.88,0.01 -1.34,0.02 0.75,-1.16 1.53,-2.3 2.34,-3.43 l -93.41,-62.02 c -0.36,1.13 -1.44,1.69 -2.55,1.69 -1.42,0 -2.9,-0.92 -3.03,-2.74 -1.71,-24.57 -3.01,-49.51 -3.73,-74.65 l -5.98,-102.98 8.48,-27.92 c 2.34,-31.59 6.1,-62.95 11.65,-93.7"
         style="fill:#d2d1cf;fill-opacity:1;fill-rule:nonzero;stroke:none"
         id="path390" /><path
         d="m 3115.66,3669.08 c -0.81,1.13 -1.59,2.27 -2.34,3.43 0.46,-0.01 0.9,-0.02 1.34,-0.02 3.12,0 5.82,0.47 8.15,1.34 l -7.15,-4.75"
         style="fill:#cb7c72;fill-opacity:1;fill-rule:nonzero;stroke:none"
         id="path392" /><path
         d="m 3243.41,3281.81 h -2.35 c -32.44,7.47 -58.61,12.35 -60.76,12.35 -0.04,0 -0.07,0 -0.09,0 h -132.46 -0.01 l -17.28,56.88 c -3.48,29.27 -6.66,58.59 -8.25,88.16 -2.99,55.55 -2.7,111.26 0.16,166.81 0.02,0.39 -0.02,0.74 -0.12,1.05 l 93.41,62.02 7.15,4.75 2.86,1.9 v 0 l -58.57,-106.16 c 17.74,-80.23 25.14,-172.81 30.15,-230.17 66.54,-4.91 85.21,-30.45 146.16,-57.59 m -227.97,118.65 -8.48,27.92 5.98,102.98 c -1.24,-43.4 -0.72,-87.37 2.5,-130.9"
         style="fill:#2e779e;fill-opacity:1;fill-rule:nonzero;stroke:none"
         id="path394" /><path
         d="m 3092.24,3271.08 c -26.04,4.58 -46.58,8.66 -53.53,10.25 -0.46,4.28 -0.94,8.56 -1.43,12.83 h 10.47 132.46 c 0.02,0 0.05,0 0.09,0 2.15,0 28.32,-4.88 60.76,-12.35 h -148.82 v -10.73"
         style="fill:#1e2e53;fill-opacity:1;fill-rule:nonzero;stroke:none"
         id="path396" /><path
         d="m 3038.71,3281.33 c -0.87,0.2 -1.53,0.36 -1.96,0.48 -2.09,0.57 -5.52,9.78 -9.66,24.95 -5.55,30.75 -9.31,62.11 -11.65,93.7 -3.22,43.53 -3.74,87.5 -2.5,130.9 0.72,25.14 2.02,50.08 3.73,74.65 0.13,1.82 1.61,2.74 3.03,2.74 1.11,0 2.19,-0.56 2.55,-1.69 0.1,-0.31 0.14,-0.66 0.12,-1.05 -2.86,-55.55 -3.15,-111.26 -0.16,-166.81 1.59,-29.57 4.77,-58.89 8.25,-88.16 2.26,-18.96 4.65,-37.89 6.82,-56.88 0.49,-4.27 0.97,-8.55 1.43,-12.83"
         style="fill:#100f0d;fill-opacity:1;fill-rule:nonzero;stroke:none"
         id="path398" /><path
         d="m 3259.61,3281.81 h -4.58 c 0.02,0.43 0.04,0.87 0.07,1.32 1.58,0.12 3.26,0.23 5.01,0.3 l -0.5,-1.62"
         style="fill:#d2d1cf;fill-opacity:1;fill-rule:nonzero;stroke:none"
         id="path400" /><path
         d="m 3255.03,3281.81 h -11.62 c 0,0 4.88,0.81 11.69,1.32 -0.03,-0.45 -0.05,-0.89 -0.07,-1.32"
         style="fill:#2e779e;fill-opacity:1;fill-rule:nonzero;stroke:none"
         id="path402" /><path
         d="m 3254.87,3266.33 h -134.7 c -9.73,1.59 -19.14,3.2 -27.93,4.75 v 10.73 h 148.82 2.35 v 0 0 h 11.62 4.58 l -4.74,-15.48"
         style="fill:#8796ba;fill-opacity:1;fill-rule:nonzero;stroke:none"
         id="path404" /><path
         d="m 3264.38,3266.33 h -9.51 l 4.74,15.48 0.5,1.62 c 1.81,0.08 3.69,0.13 5.6,0.13 1.3,0 2.62,-0.02 3.94,-0.07 l -5.27,-17.16"
         style="fill:#8796ba;fill-opacity:1;fill-rule:nonzero;stroke:none"
         id="path406" /><path
         d="m 3293.01,3266.33 h -28.63 l 5.27,17.16 c 12.19,-0.44 24.53,-3.13 26.96,-11.85 0.51,-1.85 -0.91,-3.63 -3.6,-5.31"
         style="fill:#b7bbcc;fill-opacity:1;fill-rule:nonzero;stroke:none"
         id="path408" /><path
         d="m 3235,3269.38 c 6.7,8.44 18.91,9.66 29.67,9.39 7.97,-0.19 15.93,-0.83 23.82,-1.9 3.6,-0.48 7.74,-1.33 8.12,-5.23 0.38,-3.9 -17.46,0.01 -26.82,-2.7 18.33,-1.57 36.74,-2.07 55.13,-1.49 2.14,0.06 4.36,0.13 6.35,-0.66 1.98,-0.79 3.7,-2.69 3.56,-4.83 -0.09,-1.67 -1.27,-3.07 -2.52,-4.19 -5.13,-4.62 -12.15,-6.45 -18.96,-7.64 -28.12,-4.92 -57.66,-4.07 -83.8,7.4"
         style="fill:#ed8c73;fill-opacity:1;fill-rule:nonzero;stroke:none"
         id="path410" /><path
         d="m 3068.89,3569.51 c 1.47,-85.76 13.72,-163.63 12.05,-249.39 66.55,-4.91 100.37,-17.83 161.33,-44.97 0,0 3.62,-12.11 -2.02,-22.32 -4.65,-1.7 -199.06,6.52 -215.04,21.24 -14.38,13.25 -39.99,214.73 -41.16,317.53 -0.17,14.59 0.34,30.44 9.48,41.83 4.8,5.99 11.54,10.1 18.38,13.59 39.76,20.33 69.2,25.88 113.76,28.71"
         style="fill:#3c94bf;fill-opacity:1;fill-rule:nonzero;stroke:none"
         id="path412" /><path
         d="m 3447.33,3381.6 c 0,-19.85 16.1,-35.94 35.94,-35.94 19.86,0 35.94,16.09 35.94,35.94 0,19.85 -16.08,35.94 -35.94,35.94 -19.84,0 -35.94,-16.09 -35.94,-35.94"
         style="fill:#ffffff;fill-opacity:1;fill-rule:nonzero;stroke:none"
         id="path414" /><path
         d="m 3367.66,4355.84 c -2.49,0 -4.59,1.92 -4.79,4.44 -0.19,2.65 1.79,4.95 4.43,5.15 h 0.03 l 13.09,0.91 c 0.11,0.01 0.22,0.01 0.33,0.01 2.49,0 4.58,-1.92 4.75,-4.44 0.18,-2.61 -1.78,-4.87 -4.39,-5.07 l -0.3,-0.02 -12.47,-0.95 -0.31,-0.02 c -0.13,-0.01 -0.25,-0.01 -0.37,-0.01"
         style="fill:#d4edfb;fill-opacity:1;fill-rule:nonzero;stroke:none"
         id="path416" /><path
         d="m 3425.98,4354.57 c -0.21,0 -0.42,0.01 -0.63,0.04 -8.46,1.14 -16.95,1.9 -25.45,2.23 -2.6,0.11 -4.61,2.29 -4.51,4.88 0.1,2.53 2.18,4.52 4.69,4.52 0.07,0 0.13,0 0.19,-0.01 h 0.03 c 8.82,-0.4 17.6,-1.25 26.31,-2.48 2.52,-0.36 4.28,-2.7 3.93,-5.22 -0.33,-2.3 -2.3,-3.96 -4.56,-3.96"
         style="fill:#d4edfb;fill-opacity:1;fill-rule:nonzero;stroke:none"
         id="path418" /><path
         d="m 3470.38,4345.13 c -0.41,0 -0.83,0.06 -1.25,0.18 -8.19,2.38 -16.49,4.42 -24.85,6.11 -2.47,0.5 -4.06,2.9 -3.57,5.36 0.44,2.15 2.34,3.65 4.46,3.65 0.3,0 0.6,-0.03 0.9,-0.09 l 0.03,-0.01 c 8.61,-1.79 17.13,-3.95 25.55,-6.47 2.36,-0.7 3.71,-3.18 3,-5.54 -0.57,-1.94 -2.35,-3.19 -4.27,-3.19"
         style="fill:#d4edfb;fill-opacity:1;fill-rule:nonzero;stroke:none"
         id="path420" /><path
         d="m 3512.87,4329.16 c -0.61,0 -1.23,0.13 -1.83,0.41 -7.72,3.62 -15.62,6.88 -23.65,9.78 -2.28,0.83 -3.46,3.35 -2.63,5.63 0.64,1.79 2.33,2.9 4.13,2.9 0.5,0 1,-0.08 1.5,-0.26 l 0.02,-0.01 c 8.25,-3.06 16.38,-6.46 24.32,-10.25 2.14,-1.03 3.05,-3.61 2.03,-5.75 -0.74,-1.55 -2.28,-2.45 -3.89,-2.45"
         style="fill:#d4edfb;fill-opacity:1;fill-rule:nonzero;stroke:none"
         id="path422" /><path
         d="m 3551.97,4306.17 c -0.86,0 -1.72,0.26 -2.46,0.8 -6.84,5.02 -14.02,9.61 -21.43,13.8 -2.04,1.16 -2.76,3.75 -1.61,5.79 0.78,1.38 2.22,2.15 3.7,2.15 0.71,0 1.42,-0.18 2.08,-0.55 l 0.03,-0.02 c 7.64,-4.39 15.07,-9.2 22.17,-14.48 1.84,-1.37 2.23,-3.97 0.85,-5.81 -0.81,-1.1 -2.06,-1.68 -3.33,-1.68"
         style="fill:#d4edfb;fill-opacity:1;fill-rule:nonzero;stroke:none"
         id="path424" /><path
         d="m 3584.73,4274.96 c -1.19,0 -2.37,0.52 -3.16,1.53 -5.19,6.62 -11.01,12.77 -17.28,18.45 -1.67,1.52 -1.8,4.11 -0.28,5.78 0.81,0.89 1.92,1.34 3.03,1.34 0.98,0 1.96,-0.35 2.74,-1.06 l 0.02,-0.02 c 6.54,-6 12.63,-12.52 18.09,-19.57 1.36,-1.75 1.04,-4.26 -0.71,-5.61 -0.73,-0.57 -1.59,-0.84 -2.45,-0.84"
         style="fill:#d4edfb;fill-opacity:1;fill-rule:nonzero;stroke:none"
         id="path426" /><path
         d="m 3605.51,4234.98 c -1.67,0 -3.21,1.1 -3.69,2.79 -2.31,8.03 -5.61,15.76 -9.73,23.05 -1.07,1.9 -0.4,4.31 1.49,5.37 0.62,0.35 1.28,0.51 1.94,0.51 1.37,0 2.71,-0.72 3.43,-2 l 0.01,-0.03 c 4.35,-7.82 7.85,-16.15 10.27,-24.79 0.57,-2.06 -0.63,-4.18 -2.68,-4.76 -0.34,-0.1 -0.69,-0.14 -1.04,-0.14"
         style="fill:#d4edfb;fill-opacity:1;fill-rule:nonzero;stroke:none"
         id="path428" /><path
         d="m 3608.37,4190.07 c -0.17,0 -0.36,0.01 -0.54,0.04 -2.01,0.29 -3.41,2.16 -3.13,4.17 1.16,8.31 1.39,16.74 0.6,25.06 -0.19,2.08 1.34,3.93 3.42,4.12 0.12,0.01 0.25,0.02 0.37,0.02 1.92,0 3.57,-1.47 3.76,-3.43 v -0.03 c 0.79,-8.93 0.46,-17.95 -0.83,-26.79 -0.27,-1.84 -1.84,-3.16 -3.65,-3.16"
         style="fill:#d4edfb;fill-opacity:1;fill-rule:nonzero;stroke:none"
         id="path430" /><path
         d="m 3594.62,4147.05 c -0.53,0 -1.06,0.11 -1.56,0.36 -1.76,0.86 -2.48,2.98 -1.63,4.73 3.35,6.96 6.26,14.13 8.56,21.46 2.22,-1.04 4.41,-2.12 6.58,-3.25 -2.42,-7.32 -5.38,-14.44 -8.77,-21.31 -0.62,-1.26 -1.88,-1.99 -3.18,-1.99 m 12.97,26.51 c -2.13,1.12 -4.29,2.19 -6.46,3.23 0.67,1 1.81,1.6 3.02,1.6 0.34,0 0.68,-0.05 1.02,-0.15 1.93,-0.57 3.03,-2.59 2.47,-4.51 l -0.01,-0.03 c -0.02,-0.05 -0.03,-0.09 -0.04,-0.14"
         style="fill:#d4edfb;fill-opacity:1;fill-rule:nonzero;stroke:none"
         id="path432" /><path
         d="m 3569.66,4109.33 c -0.78,0 -1.57,0.27 -2.21,0.83 -1.4,1.22 -1.56,3.34 -0.35,4.75 5.52,6.46 10.57,13.32 15.08,20.52 0.66,1.05 1.8,1.63 2.95,1.63 0.63,0 1.27,-0.17 1.84,-0.53 1.63,-1.02 2.12,-3.17 1.11,-4.8 l -0.02,-0.02 c -4.75,-7.45 -10.05,-14.55 -15.84,-21.21 -0.67,-0.78 -1.61,-1.17 -2.56,-1.17"
         style="fill:#d4edfb;fill-opacity:1;fill-rule:nonzero;stroke:none"
         id="path434" /><path
         d="m 3535.85,4079.25 c -1.03,0 -2.04,0.5 -2.67,1.42 -0.98,1.46 -0.6,3.46 0.85,4.46 7.01,4.81 13.65,10.16 19.86,15.97 0.64,0.6 1.45,0.89 2.26,0.89 0.88,0 1.76,-0.35 2.41,-1.05 1.26,-1.33 1.19,-3.43 -0.15,-4.68 l -0.02,-0.01 c -6.49,-5.99 -13.42,-11.49 -20.73,-16.44 -0.56,-0.38 -1.19,-0.56 -1.81,-0.56"
         style="fill:#d4edfb;fill-opacity:1;fill-rule:nonzero;stroke:none"
         id="path436" /><path
         d="m 3495.32,4059.07 c -1.27,0 -2.46,0.8 -2.89,2.07 -0.54,1.59 0.3,3.32 1.9,3.87 8.02,2.79 15.85,6.2 23.35,10.2 0.47,0.24 0.98,0.36 1.48,0.36 1.12,0 2.21,-0.61 2.78,-1.67 0.81,-1.54 0.24,-3.44 -1.3,-4.26 h -0.02 c -7.83,-4.09 -15.96,-7.58 -24.31,-10.41 -0.33,-0.11 -0.66,-0.16 -0.99,-0.16"
         style="fill:#d4edfb;fill-opacity:1;fill-rule:nonzero;stroke:none"
         id="path438" /><path
         d="m 3450.77,4051.05 c -1.6,0 -2.9,1.3 -2.9,2.9 0,1.6 1.29,2.89 2.88,2.91 8.43,0.07 16.88,1.17 25.18,2.96 0.21,0.05 0.42,0.07 0.63,0.07 1.38,0 2.62,-0.95 2.91,-2.35 0.35,-1.62 -0.66,-3.21 -2.28,-3.56 h -0.02 c -8.64,-1.81 -17.48,-2.91 -26.39,-2.93 h -0.01"
         style="fill:#d4edfb;fill-opacity:1;fill-rule:nonzero;stroke:none"
         id="path440" /><path
         d="m 3431.43,4053.08 c -0.2,0 -0.4,0.03 -0.61,0.07 h -0.03 c -8.77,1.98 -17.32,5.67 -24.52,11.29 -1.2,0.93 -1.43,2.65 -0.5,3.85 0.54,0.7 1.35,1.06 2.17,1.06 0.59,0 1.18,-0.18 1.68,-0.56 6.52,-5.02 14.29,-8.33 22.41,-10.1 1.53,-0.34 2.5,-1.85 2.17,-3.38 -0.3,-1.32 -1.46,-2.23 -2.77,-2.23"
         style="fill:#d4edfb;fill-opacity:1;fill-rule:nonzero;stroke:none"
         id="path442" /><path
         d="m 3394.99,4078.34 c -0.89,0 -1.76,0.44 -2.26,1.25 l -0.02,0.02 c -4.77,7.74 -7.83,16.21 -9.66,25.02 -0.3,1.41 0.6,2.78 2.01,3.07 0.18,0.03 0.35,0.05 0.53,0.05 1.2,0 2.27,-0.83 2.53,-2.04 l 0.01,-0.08 c 1.75,-8.13 4.72,-16.18 9.13,-23.17 0.79,-1.25 0.42,-2.91 -0.83,-3.71 -0.45,-0.28 -0.95,-0.41 -1.44,-0.41"
         style="fill:#d4edfb;fill-opacity:1;fill-rule:nonzero;stroke:none"
         id="path444" /><path
         d="m 3385.52,4121.97 c -0.16,0 -0.31,0.01 -0.47,0.04 -1.38,0.26 -2.28,1.58 -2.02,2.95 l 0.01,0.02 c 1.74,8.97 5.9,17.29 11.34,24.4 0.48,0.62 1.21,0.96 1.94,0.96 0.51,0 1.03,-0.17 1.47,-0.5 1.08,-0.82 1.28,-2.34 0.47,-3.41 -5.03,-6.67 -8.74,-14.3 -10.26,-22.41 -0.24,-1.21 -1.29,-2.05 -2.48,-2.05"
         style="fill:#d4edfb;fill-opacity:1;fill-rule:nonzero;stroke:none"
         id="path446" /><path
         d="m 3409.93,4159.41 c -0.69,0 -1.37,0.3 -1.83,0.88 -0.83,1 -0.69,2.5 0.32,3.33 l 0.02,0.01 c 6.9,5.57 14.48,10.21 22.37,14.1 0.32,0.16 0.67,0.24 1.01,0.24 0.84,0 1.65,-0.47 2.05,-1.27 0.55,-1.12 0.1,-2.49 -1.03,-3.05 -7.61,-3.83 -14.87,-8.34 -21.42,-13.7 -0.43,-0.36 -0.96,-0.54 -1.49,-0.54"
         style="fill:#d4edfb;fill-opacity:1;fill-rule:nonzero;stroke:none"
         id="path448" /><path
         d="m 3449.79,4180.99 c -0.91,0 -1.77,0.57 -2.08,1.48 -0.41,1.16 0.19,2.42 1.34,2.83 h 0.02 c 8.3,2.86 16.8,5.08 25.4,6.74 0.14,0.03 0.27,0.04 0.4,0.04 1,0 1.89,-0.7 2.09,-1.72 0.22,-1.15 -0.52,-2.27 -1.68,-2.49 -8.39,-1.68 -16.69,-3.91 -24.75,-6.75 -0.25,-0.09 -0.49,-0.13 -0.74,-0.13"
         style="fill:#d4edfb;fill-opacity:1;fill-rule:nonzero;stroke:none"
         id="path450" /><path
         d="m 3494.15,4190.72 c -1.05,0 -1.94,0.79 -2.05,1.85 -0.12,1.13 0.7,2.14 1.84,2.25 h 0.02 c 6.74,0.64 13.5,0.97 20.27,0.97 1.97,0 3.95,-0.03 5.93,-0.09 1.09,-0.03 1.94,-0.93 1.91,-2.02 -0.03,-1.07 -0.91,-1.92 -1.97,-1.92 -0.02,0 -0.03,0 -0.04,0 -1.47,0.03 -2.94,0.05 -4.41,0.05 -7.11,0 -14.22,-0.36 -21.29,-1.08 -0.07,-0.01 -0.14,-0.01 -0.21,-0.01"
         style="fill:#d4edfb;fill-opacity:1;fill-rule:nonzero;stroke:none"
         id="path452" /><path
         d="m 3565.1,4185.93 c -0.14,0 -0.29,0.02 -0.43,0.05 -8.34,2.04 -16.81,3.53 -25.34,4.5 -1.05,0.12 -1.8,1.06 -1.68,2.1 0.1,0.97 0.93,1.69 1.88,1.69 0.08,0 0.15,0 0.23,-0.01 h 0.01 c 8.68,-1.04 17.29,-2.62 25.78,-4.75 0.96,-0.25 1.55,-1.23 1.31,-2.21 -0.2,-0.82 -0.95,-1.37 -1.76,-1.37"
         style="fill:#d4edfb;fill-opacity:1;fill-rule:nonzero;stroke:none"
         id="path454" /><path
         d="m 3606.78,4170.24 c -0.07,0.04 -0.14,0.07 -0.21,0.11 -2.17,1.13 -4.36,2.21 -6.58,3.25 -5.48,2.57 -11.1,4.86 -16.82,6.88 -0.9,0.32 -1.38,1.32 -1.06,2.23 0.25,0.72 0.93,1.17 1.64,1.17 0.2,0 0.39,-0.04 0.59,-0.11 h 0.01 c 5.71,-2.06 11.31,-4.38 16.78,-6.98 2.17,-1.04 4.33,-2.11 6.46,-3.23 0.24,-0.13 0.49,-0.26 0.73,-0.38 l 0.69,-2.25 -2.23,-0.69"
         style="fill:#d4edfb;fill-opacity:1;fill-rule:nonzero;stroke:none"
         id="path456" /><path
         d="m 3643.55,4144.42 c -6.3,5.83 -13.06,11.16 -20.18,15.96 l -0.43,2.2 2.21,0.43 h 0.01 c 7.21,-4.93 14.06,-10.42 20.44,-16.39 l 0.07,-2.13 -2.12,-0.07"
         style="fill:#d4edfb;fill-opacity:1;fill-rule:nonzero;stroke:none"
         id="path458" /><path
         d="m 3674.08,4109.33 -1.85,0.43 c -4.57,7.29 -9.67,14.24 -15.27,20.75 l 0.16,2.03 2.02,-0.16 v 0 c 5.65,-6.67 10.78,-13.77 15.37,-21.19 l -0.43,-1.86"
         style="fill:#d4edfb;fill-opacity:1;fill-rule:nonzero;stroke:none"
         id="path460" /><path
         d="m 3692.99,4068.25 -1.51,0.74 c -2.78,8.15 -6.05,16.14 -9.84,23.87 l 0.59,1.71 1.7,-0.59 v -0.01 c 3.79,-7.85 7.05,-15.95 9.81,-24.21 l -0.75,-1.51"
         style="fill:#d4edfb;fill-opacity:1;fill-rule:nonzero;stroke:none"
         id="path462" /><path
         d="m 3702.75,4024.04 -1.17,0.93 c -0.96,8.56 -2.56,17.05 -4.63,25.42 l 0.82,1.36 1.37,-0.82 v 0 c 2.05,-8.47 3.61,-17.06 4.55,-25.72 l -0.94,-1.17"
         style="fill:#d4edfb;fill-opacity:1;fill-rule:nonzero;stroke:none"
         id="path464" /><path
         d="m 3700.93,3978.86 -0.73,1.1 c 1.62,8.45 2.41,17.06 2.46,25.68 l 1,0.99 1,-1.01 v -0.01 c -0.09,-8.71 -0.93,-17.44 -2.63,-26.01 l -1.1,-0.74"
         style="fill:#d4edfb;fill-opacity:1;fill-rule:nonzero;stroke:none"
         id="path466" /><path
         d="m 3684.3,3936.91 -0.27,1.12 c 4.48,7.36 8.21,15.16 11.09,23.26 l 1.13,0.54 0.54,-1.13 v 0 c -2.97,-8.21 -6.8,-16.1 -11.37,-23.52 l -1.12,-0.27"
         style="fill:#d4edfb;fill-opacity:1;fill-rule:nonzero;stroke:none"
         id="path468" /><path
         d="m 3655.67,3902.68 -0.97,0.07 0.07,0.98 c 6.49,5.68 12.56,11.86 18.03,18.52 l 1.08,0.1 0.1,-1.08 c -5.57,-6.7 -11.72,-12.89 -18.31,-18.59"
         style="fill:#d4edfb;fill-opacity:1;fill-rule:nonzero;stroke:none"
         id="path470" /><path
         d="m 3618.1,3876.95 -0.79,0.23 0.23,0.77 c 7.57,4.19 14.92,8.76 21.97,13.76 l 0.89,-0.15 -0.15,-0.9 c -7.11,-4.99 -14.54,-9.54 -22.15,-13.71"
         style="fill:#d4edfb;fill-opacity:1;fill-rule:nonzero;stroke:none"
         id="path472" /><path
         d="m 3576.56,3858.28 -0.57,0.27 0.26,0.58 c 8.1,3.04 16.1,6.36 23.95,10.01 l 0.69,-0.25 -0.25,-0.69 c -7.9,-3.62 -15.93,-6.91 -24.08,-9.92"
         style="fill:#d4edfb;fill-opacity:1;fill-rule:nonzero;stroke:none"
         id="path474" /><path
         d="m 3533.07,3844.91 -0.41,0.23 0.24,0.41 24.95,7.19 0.51,-0.24 -0.24,-0.51 h -0.02 l -25.03,-7.08"
         style="fill:#d4edfb;fill-opacity:1;fill-rule:nonzero;stroke:none"
         id="path476" /><path
         d="m 3488.53,3835.62 -0.25,0.17 0.18,0.25 25.5,4.98 0.33,-0.2 -0.21,-0.34 h -0.01 l -25.54,-4.86"
         style="fill:#d4edfb;fill-opacity:1;fill-rule:nonzero;stroke:none"
         id="path478" /><path
         d="m 3443.41,3829.77 -0.09,0.07 0.08,0.1 25.8,3.08 0.17,-0.12 -0.12,-0.19 -25.84,-2.94"
         style="fill:#d4edfb;fill-opacity:1;fill-rule:nonzero;stroke:none"
         id="path480" /><path
         d="m 3411.14,3827.71 12.79,0.62 0.04,-0.02 -0.03,-0.04 -12.8,-0.56"
         style="fill:#d4edfb;fill-opacity:1;fill-rule:nonzero;stroke:none"
         id="path482" /><path
         d="m 3219.5,4458.35 c -1.25,0.74 80.98,7.06 80.98,7.06 l 55.01,-106.07 -79.9,51 -83.3,-39.52 -175.85,21.79 203.06,65.74"
         style="fill:#b6e7f7;fill-opacity:1;fill-rule:nonzero;stroke:none"
         id="path484" /><path
         d="m 3016.44,4392.61 339.05,-33.27 -79.9,51 z"
         style="fill:#78c7f0;fill-opacity:1;fill-rule:nonzero;stroke:none"
         id="path486" /><path
         d="m 3016.44,4392.61 313.4,140.78 -29.36,-67.98 -284.04,-72.8 259.15,17.73 -48.06,-118.18 -211.09,100.45"
         style="fill:#d4f1fc;fill-opacity:1;fill-rule:nonzero;stroke:none"
         id="path488" /></g></g></svg>
